       <svg class="arrow-dark" width="30" height="654" viewBox="0 0 30 654" fill="none" xmlns="http://www.w3.org/2000/svg">
            <path d="M15 0.333333C9.10896 0.333334 4.33333 5.10896 4.33333 11C4.33333 16.891 9.10896 21.6667 15 21.6667C20.891 21.6667 25.6667 16.891 25.6667 11C25.6667 5.10896 20.891 0.333333 15 0.333333ZM13.5858 653.414C14.3669 654.195 15.6332 654.195 16.4142 653.414L29.1422 640.686C29.9232 639.905 29.9232 638.639 29.1422 637.858C28.3611 637.077 27.0948 637.077 26.3137 637.858L15 649.172L3.68632 637.858C2.90527 637.077 1.63894 637.077 0.857892 637.858C0.0768432 638.639 0.0768433 639.905 0.857892 640.686L13.5858 653.414ZM13 11L13 652L17 652L17 11L13 11Z" fill="black"/>
            <path d="M15 0.333333C9.10896 0.333334 4.33333 5.10896 4.33333 11C4.33333 16.891 9.10896 21.6667 15 21.6667C20.891 21.6667 25.6667 16.891 25.6667 11C25.6667 5.10896 20.891 0.333333 15 0.333333ZM13.5858 653.414C14.3669 654.195 15.6332 654.195 16.4142 653.414L29.1422 640.686C29.9232 639.905 29.9232 638.639 29.1422 637.858C28.3611 637.077 27.0948 637.077 26.3137 637.858L15 649.172L3.68632 637.858C2.90527 637.077 1.63894 637.077 0.857892 637.858C0.0768432 638.639 0.0768433 639.905 0.857892 640.686L13.5858 653.414ZM13 11L13 652L17 652L17 11L13 11Z" fill="#FF9C40"/>
        </svg>
