<!-- sample rectangle -->
<svg class="asteroid-1-sm" width="101" height="70" viewBox="0 0 101 70" fill="none" xmlns="http://www.w3.org/2000/svg">
            <path fill-rule="evenodd" clip-rule="evenodd" d="M21.0534 22.2203L11.8748 28.4335C11.5057 30.4222 10.9213 34.5618 11.5366 35.2104C12.3057 36.0211 26.3172 44.3055 26.6584 43.3682C26.9996 42.4308 38.1443 39.5871 38.6561 38.181C39.1678 36.775 42.8369 29.618 42.7083 28.5097C42.6053 27.623 37.111 22.9339 34.3768 20.7003L24.5548 21.3716L21.0534 22.2203ZM13.7542 29.1175L21.6519 23.4997L33.6944 22.575L40.9575 28.934L36.7767 37.497L25.7606 41.4491L12.988 34.1464L13.7542 29.1175Z" fill="#FF9C40"/>
            <path fill-rule="evenodd" clip-rule="evenodd" d="M38.3207 50.7976L34.948 52.7546L36.6149 55.4844L41.6545 56.2571L41.3972 54.0404L38.3207 50.7976ZM36.8274 53.4387L37.6384 52.6723L40.1163 54.6357L38.0663 54.4204L36.8274 53.4387Z" fill="#FF9C40"/>
            <path fill-rule="evenodd" clip-rule="evenodd" d="M56.7286 54.3128L67.9123 44.0525L82.8158 42.5768L92.9399 48.3848L82.4805 55.1934C78.0822 56.0695 69.1577 57.8812 68.6453 58.1194C68.133 58.3575 61.8261 56.8758 58.7366 56.1052L56.7286 54.3128ZM68.5108 45.3319L58.7786 54.5282L59.419 54.2305L60.6579 55.2122L68.2174 56.3713L82.0525 53.4453L90.2495 48.4671L82.304 43.9829L68.5108 45.3319Z" fill="#FF9C40"/>
            <path fill-rule="evenodd" clip-rule="evenodd" d="M70.63 13.1952L66.8742 17.6667L68.8403 21.0362L76.6123 20.1495L77.5071 16.229L72.9792 14.0502L70.63 13.1952ZM69.0947 17.4134L71.3572 15.583L75.5858 17.1221L75.074 18.5281L69.8219 19.8011L69.0947 17.4134Z" fill="#FF9C40"/>
            <path fill-rule="evenodd" clip-rule="evenodd" d="M45.0458 6.0064L44.7914 9.62922C43.5105 10.2246 40.9147 11.509 40.7782 11.884C40.6076 12.3526 34.8856 13.4546 34.4158 13.2836L31.1268 12.0866C30.9842 11.5039 30.8611 10.1852 31.5099 9.57213C32.321 8.80577 35.8643 6.38003 36.3341 6.55104C36.71 6.68785 40.1917 6.18582 41.8855 5.91771L45.0458 6.0064ZM32.9195 10.0852L36.4628 7.65942L43.5943 7.07044L43.3818 9.11619L39.0694 10.7312L34.2871 12.1753L32.5783 11.0225L32.9195 10.0852Z" fill="#FF9C40"/>
            <path fill-rule="evenodd" clip-rule="evenodd" d="M79.9762 0.673735L36.3312 0.711462L4.74039 23.1829L1.03815 49.4356L32.1796 67.6702L76.893 69.0829L100.457 51.121L100.269 16.5522L79.9762 0.673735ZM7.55946 24.2089L37.1871 4.20761L78.9527 3.48585L98.0068 18.3826L98.1082 50.2659L76.1658 66.6951L33.0325 65.3268L3.13004 48.0739L7.55946 24.2089Z" fill="white"/>
            <path d="M34.4158 13.2836C34.8856 13.4546 40.6076 12.3526 40.7782 11.884C40.9147 11.509 43.5105 10.2246 44.7914 9.62922L45.0458 6.0064L41.8855 5.91771C40.1917 6.18582 36.71 6.68785 36.3341 6.55104C35.8643 6.38003 32.321 8.80577 31.5099 9.57213C30.8611 10.1852 30.9842 11.5039 31.1268 12.0866M34.4158 13.2836C34.0399 13.1468 32.0665 12.4286 31.1268 12.0866M34.4158 13.2836L31.1268 12.0866M79.9762 0.673735L36.3312 0.711461L4.74039 23.1829L1.03815 49.4356L32.1796 67.6702L76.893 69.0829L100.457 51.121L100.269 16.5522L79.9762 0.673735ZM37.1871 4.20761L7.55946 24.2089L3.13004 48.0739L33.0325 65.3268L76.1658 66.6951L98.1082 50.2659L98.0068 18.3826L78.9527 3.48585L37.1871 4.20761ZM21.0534 22.2203L11.8748 28.4335C11.5057 30.4222 10.9213 34.5618 11.5366 35.2104C12.3057 36.0211 26.3172 44.3055 26.6584 43.3682C26.9996 42.4308 38.1443 39.5871 38.6561 38.181C39.1678 36.775 42.8369 29.618 42.7083 28.5097C42.6053 27.623 37.111 22.9339 34.3768 20.7003L24.5548 21.3716L21.0534 22.2203ZM56.7286 54.3128L67.9123 44.0525L82.8158 42.5768L92.9399 48.3848L82.4805 55.1934C78.0822 56.0695 69.1577 57.8812 68.6453 58.1194C68.133 58.3575 61.8261 56.8758 58.7366 56.1052L56.7286 54.3128ZM70.63 13.1952L66.8742 17.6667L68.8403 21.0362L76.6123 20.1495L77.5071 16.229L72.9792 14.0502L70.63 13.1952ZM38.3207 50.7976L34.948 52.7546L36.6149 55.4844L41.6545 56.2571L41.3972 54.0404L38.3207 50.7976ZM21.6519 23.4997L13.7542 29.1175L12.988 34.1464L25.7606 41.4491L36.7767 37.497L40.9575 28.934L33.6944 22.575L21.6519 23.4997ZM36.4628 7.65942L32.9195 10.0852L32.5783 11.0225L34.2871 12.1753L39.0694 10.7312L43.3818 9.11619L43.5943 7.07044L36.4628 7.65942ZM71.3572 15.583L69.0947 17.4134L69.8219 19.8011L75.074 18.5281L75.5858 17.1221L71.3572 15.583ZM37.6384 52.6723L36.8274 53.4387L38.0663 54.4204L40.1163 54.6357L37.6384 52.6723ZM58.7786 54.5282L68.5108 45.3319L82.304 43.9829L90.2495 48.4671L82.0525 53.4453L68.2174 56.3713L60.6579 55.2122L59.419 54.2305L58.7786 54.5282Z" stroke="#FF9C40"/>
        </svg>