<!-- sample rectangle -->
        <svg class="asteroid-2-lg" width="126" height="119" viewBox="0 0 126 119" fill="none" xmlns="http://www.w3.org/2000/svg">
            <path d="M8.42515 9.14557L4.71257 31.3608L21.0479 72.0886L63.3713 112.076L104.21 105.411L119.06 74.3101L94.5569 39.5063L58.9162 26.1772L21.0479 6.18354L8.42515 9.14557Z" fill="#161616"/>
            <path fill-rule="evenodd" clip-rule="evenodd" d="M15.8503 17.2911L12.8802 24.6962L15.8503 35.8038L17.3353 40.2468H27.7305L32.9281 35.8038V30.6203C32.9281 29.4354 31.9381 23.2152 31.4431 20.2532L26.2455 17.2911H15.8503ZM15.8503 24.6962L17.3353 20.2532H23.2754L29.2156 22.4747L29.9581 32.8418L26.2455 36.5443H18.8204L15.8503 24.6962Z" fill="#FF9C40"/>
            <path fill-rule="evenodd" clip-rule="evenodd" d="M53.7186 35.8038L49.2635 38.7658V46.1709L53.7186 49.1329L59.6587 46.1709L62.6287 42.4684C63.1237 41.7279 63.8168 39.9506 62.6287 38.7658L59.6587 35.8038H53.7186ZM51.491 43.9494V39.5063L58.9162 38.0253L61.1437 40.9873L58.9162 43.9494L53.7186 46.9114L51.491 43.9494Z" fill="#FF9C40"/>
            <path fill-rule="evenodd" clip-rule="evenodd" d="M39.6108 72.8291L55.2036 67.6456L81.1916 78.0127H92.3293L96.7844 90.6013L85.6467 100.968H68.5689L55.9461 89.8608L44.8084 84.6772L39.6108 80.2342V72.8291ZM41.8383 74.3101L54.4611 70.6076H55.2036L81.1916 80.9747H89.3593L93.0719 89.8608L84.9042 98.7468L68.5689 98.0063L57.4311 88.3798L48.521 83.9367L41.8383 79.4937V74.3101Z" fill="#FF9C40"/>
            <path fill-rule="evenodd" clip-rule="evenodd" d="M84.1617 42.4684L81.1916 49.1329L87.8743 58.019H96.7844L99.012 53.576L96.7844 46.1709L90.8443 43.2089L84.1617 42.4684ZM84.9042 49.1329V45.4304H90.8443L94.5569 47.6519L96.0419 53.576L94.5569 55.7975L89.3593 55.057L84.9042 49.1329Z" fill="#FF9C40"/>
            <path fill-rule="evenodd" clip-rule="evenodd" d="M4.71257 3.96203L1 33.5823L17.3353 74.3101L63.3713 118L107.18 109.114L125 72.0886L94.5569 33.5823L58.9162 20.9937L23.2754 1H11.3952L4.71257 3.96203ZM4.71257 31.3608L8.42515 9.14557L21.0479 6.18354L58.9162 26.1772L94.5569 39.5063L119.06 74.3101L104.21 105.411L63.3713 112.076L21.0479 72.0886L4.71257 31.3608Z" fill="white"/>
            <path d="M8.42515 9.14557L4.71257 31.3608L21.0479 72.0886L63.3713 112.076L104.21 105.411L119.06 74.3101L94.5569 39.5063L58.9162 26.1772L21.0479 6.18354L8.42515 9.14557Z" stroke="#FF9C40" stroke-width="0.5"/>
            <path fill-rule="evenodd" clip-rule="evenodd" d="M15.8503 17.2911L12.8802 24.6962L15.8503 35.8038L17.3353 40.2468H27.7305L32.9281 35.8038V30.6203C32.9281 29.4354 31.9381 23.2152 31.4431 20.2532L26.2455 17.2911H15.8503ZM15.8503 24.6962L17.3353 20.2532H23.2754L29.2156 22.4747L29.9581 32.8418L26.2455 36.5443H18.8204L15.8503 24.6962Z" stroke="#FF9C40" stroke-width="0.5"/>
            <path fill-rule="evenodd" clip-rule="evenodd" d="M53.7186 35.8038L49.2635 38.7658V46.1709L53.7186 49.1329L59.6587 46.1709L62.6287 42.4684C63.1237 41.7279 63.8168 39.9506 62.6287 38.7658L59.6587 35.8038H53.7186ZM51.491 43.9494V39.5063L58.9162 38.0253L61.1437 40.9873L58.9162 43.9494L53.7186 46.9114L51.491 43.9494Z" stroke="#FF9C40" stroke-width="0.5"/>
            <path fill-rule="evenodd" clip-rule="evenodd" d="M39.6108 72.8291L55.2036 67.6456L81.1916 78.0127H92.3293L96.7844 90.6013L85.6467 100.968H68.5689L55.9461 89.8608L44.8084 84.6772L39.6108 80.2342V72.8291ZM41.8383 74.3101L54.4611 70.6076H55.2036L81.1916 80.9747H89.3593L93.0719 89.8608L84.9042 98.7468L68.5689 98.0063L57.4311 88.3798L48.521 83.9367L41.8383 79.4937V74.3101Z" stroke="#FF9C40" stroke-width="0.5"/>
            <path fill-rule="evenodd" clip-rule="evenodd" d="M84.1617 42.4684L81.1916 49.1329L87.8743 58.019H96.7844L99.012 53.576L96.7844 46.1709L90.8443 43.2089L84.1617 42.4684ZM84.9042 49.1329V45.4304H90.8443L94.5569 47.6519L96.0419 53.576L94.5569 55.7975L89.3593 55.057L84.9042 49.1329Z" stroke="#FF9C40" stroke-width="0.5"/>
            <path fill-rule="evenodd" clip-rule="evenodd" d="M4.71257 3.96203L1 33.5823L17.3353 74.3101L63.3713 118L107.18 109.114L125 72.0886L94.5569 33.5823L58.9162 20.9937L23.2754 1H11.3952L4.71257 3.96203ZM4.71257 31.3608L8.42515 9.14557L21.0479 6.18354L58.9162 26.1772L94.5569 39.5063L119.06 74.3101L104.21 105.411L63.3713 112.076L21.0479 72.0886L4.71257 31.3608Z" stroke="#FF9C40" stroke-width="0.5"/>
        </svg>