<!-- sample rectangle -->
<svg class="asteroid-1-md" width="166" height="121" viewBox="0 0 166 121" fill="none" xmlns="http://www.w3.org/2000/svg">
            <path fill-rule="evenodd" clip-rule="evenodd" d="M0.918881 50.343L18.2702 15.9513L54.7508 15.2789L81.9793 7.88577L113.639 0.804247L165.346 49.359L157.538 92.1106L109.958 106.976L63.6971 120.315L36.288 100.986L21.0901 86.5635L0.918881 50.343ZM20.4651 19.3431L4.54471 50.5979L22.3821 85.4403C34.445 96.4054 59.6239 118.329 63.836 118.301C69.1011 118.267 152.593 93.3816 155.232 90.3297C157.344 87.8883 161.474 62.4412 163.276 50.0228L113.042 3.59499L81.8404 9.89939L54.5285 18.5007L20.4651 19.3431Z" fill="#D9D9D9"/>
            <path fill-rule="evenodd" clip-rule="evenodd" d="M31.9677 28.6501L21.8821 34.0111L19.0481 39.882L24.6882 52.0142L39.261 57.895L47.499 49.976L46.2627 38.5581L40.9559 33.3288L31.9677 28.6501ZM21.4653 40.0519L24.5355 36.6257L33.3014 32.7906L42.6368 38.3031L44.7345 48.9722L37.8718 54.5599L26.0913 49.2801L21.4653 40.0519Z" fill="#FF9C40"/>
            <path fill-rule="evenodd" clip-rule="evenodd" d="M55.0702 63.458L53.1253 68.1774L60.2103 71.1036L63.7388 66.9003L62.0857 61.5232L58.057 61.2399L55.0702 63.458ZM55.7648 65.1256L57.8903 63.6563L60.7937 62.6464L62.5302 66.8153L59.1406 69.005L55.2508 66.7081L55.7648 65.1256Z" fill="#FF9C40"/>
            <path fill-rule="evenodd" clip-rule="evenodd" d="M34.2737 77.3735L36.9826 90.9184L57.1817 103.265L70.1153 97.6994L72.8798 86.9675L66.5033 79.6396L50.2218 80.9229L43.5397 78.025L38.2052 73.1985L34.2737 77.3735ZM35.8574 77.8896L38.4413 75.6432L42.9979 80.0103L50.0829 82.9365L66.3644 81.6533L70.8099 87.6313L68.99 96.4063L56.4871 101.597L38.2746 89.7952L35.8574 77.8896Z" fill="#FF9C40"/>
            <path fill-rule="evenodd" clip-rule="evenodd" d="M93.8846 99.3707L85.8411 104.471L86.1328 106.11L93.4956 105.009L109.43 102.892L116.932 99.7771L113.986 95.5233L106.735 95.0134L101.734 97.0898L93.8846 99.3707ZM95.8434 100.318L87.4526 104.584L106.665 101.888L113.306 99.5222L113.097 96.6748L106.651 96.2215L102.456 98.3546L95.8434 100.318Z" fill="#FF9C40"/>
            <path fill-rule="evenodd" clip-rule="evenodd" d="M98.0662 79.8355L103.317 62.3989L120.238 51.8529L141.229 46.854L147.244 59.4173C147.29 66.5698 147.044 81.0939 145.688 81.9698C143.993 83.0647 136.436 86.9848 132.81 86.7298L117.904 85.6818L109.61 82.6706L102.678 83.3972L98.0662 79.8355ZM103.984 64.4691L102.178 78.9106L103.623 81.4402L109.749 80.6569L118.043 83.6681L132.949 84.7162L144.619 79.8712L145.23 59.2756L141.034 49.6731L121.683 54.3826L103.984 64.4691Z" fill="#FF9C40"/>
            <path fill-rule="evenodd" clip-rule="evenodd" d="M81.2291 18.7593L70.2265 25.6746C70.0645 29.9798 70.0403 38.9349 71.2406 40.3143C72.4409 41.6937 84.753 43.9622 90.759 44.9241C96.6817 43.1822 108.952 39.4047 110.652 38.2293C112.778 36.76 119.724 29.9642 119.78 29.1587C119.835 28.3533 119.766 23.4923 118.293 21.3653C116.821 19.2384 112.931 16.9415 110.569 15.9661C108.208 14.9907 98.1635 13.8798 97.3578 13.8232C96.7132 13.7779 86.3367 17.0951 81.2291 18.7593ZM73.0466 37.6085L73.769 27.1377L73.8524 25.9295L82.3266 20.4552L97.1633 16.6423L109.249 17.4921L116.571 22.8629L117.765 29.0171L109.208 35.6996L89.7727 41.6173L73.0466 37.6085Z" fill="#FF9C40"/>
            <path d="M132.81 86.7298C136.436 86.9848 143.993 83.0647 145.688 81.9698C147.044 81.0939 147.29 66.5698 147.244 59.4173L141.229 46.854L120.238 51.8529L103.317 62.3989L98.0662 79.8355L102.678 83.3972L109.61 82.6706L117.904 85.6818M132.81 86.7298C129.91 86.5259 121.664 85.9461 117.904 85.6818M132.81 86.7298L117.904 85.6818M4.54471 50.5979L20.4651 19.3431L54.5285 18.5007L81.8404 9.89939L113.042 3.59499L163.276 50.0228C161.474 62.4412 157.344 87.8883 155.232 90.3297C152.593 93.3816 69.1011 118.267 63.836 118.301C59.6239 118.329 34.445 96.4054 22.3821 85.4403L4.54471 50.5979ZM31.9677 28.6501L21.8821 34.0111L19.0481 39.882L24.6882 52.0142L39.261 57.895L47.499 49.976L46.2627 38.5581L40.9559 33.3288L31.9677 28.6501ZM34.2737 77.3735L36.9826 90.9184L57.1817 103.265L70.1153 97.6994L72.8798 86.9675L66.5033 79.6396L50.2218 80.9229L43.5397 78.025L38.2052 73.1985L34.2737 77.3735ZM24.5355 36.6257L21.4653 40.0519L26.0913 49.2801L37.8718 54.5599L44.7345 48.9722L42.6368 38.3031L33.3014 32.7906L24.5355 36.6257ZM38.4413 75.6432L35.8574 77.8896L38.2746 89.7952L56.4871 101.597L68.99 96.4063L70.8099 87.6313L66.3644 81.6533L50.0829 82.9365L42.9979 80.0103L38.4413 75.6432ZM102.178 78.9106L103.984 64.4691L121.683 54.3826L141.034 49.6731L145.23 59.2756L144.619 79.8712L132.949 84.7162L118.043 83.6681L109.749 80.6569L103.623 81.4402L102.178 78.9106ZM81.2291 18.7593L70.2265 25.6746C70.0645 29.9798 70.0404 38.9349 71.2406 40.3143C72.4409 41.6937 84.753 43.9622 90.759 44.9241C96.6817 43.1822 108.952 39.4047 110.652 38.2293C112.778 36.76 119.724 29.9642 119.78 29.1587C119.835 28.3533 119.766 23.4923 118.293 21.3654C116.821 19.2384 112.931 16.9415 110.569 15.9661C108.208 14.9907 98.1635 13.8798 97.3578 13.8232C96.7132 13.7779 86.3367 17.0951 81.2291 18.7593ZM73.769 27.1377L73.0466 37.6085L89.7727 41.6173L109.208 35.6996L117.765 29.0171L116.571 22.8629L109.249 17.4921L97.1633 16.6423L82.3266 20.4552L73.8524 25.9295L73.769 27.1377ZM55.0702 63.458L53.1253 68.1774L60.2103 71.1036L63.7388 66.9003L62.0857 61.5232L58.057 61.2399L55.0702 63.458ZM57.8903 63.6563L55.7648 65.1255L55.2508 66.7081L59.1406 69.005L62.5302 66.8153L60.7937 62.6464L57.8903 63.6563ZM93.8846 99.3707L85.8411 104.471L86.1328 106.11L93.4956 105.009L109.43 102.892L116.932 99.7771L113.986 95.5233L106.735 95.0134L101.734 97.0898L93.8846 99.3707ZM87.4526 104.584L95.8434 100.318L102.456 98.3546L106.651 96.2215L113.097 96.6748L113.306 99.5222L106.665 101.888L87.4526 104.584ZM0.918881 50.343L18.2702 15.9513L54.7508 15.2789L81.9793 7.88577L113.639 0.804248L165.346 49.359L157.538 92.1106L109.958 106.976L63.6971 120.315L36.288 100.986L21.0901 86.5635L0.918881 50.343Z" stroke="#FF9C40"/>
        </svg>