<!-- sample rectangle -->
<svg class="asteroid-1-lg" width="328" height="246" viewBox="0 0 328 246" fill="none" xmlns="http://www.w3.org/2000/svg">
            <path fill-rule="evenodd" clip-rule="evenodd" d="M203.642 155.831C198.915 154.905 189.18 152.419 188.056 149.878C186.652 146.703 186.549 144.378 188.594 140.635C190.64 136.892 201.558 130.199 204.057 129.575C206.557 128.951 226.404 133.032 228.34 132.181C230.277 131.33 242.63 132.067 246.571 133.654C250.511 135.242 264.389 125.827 265.938 125.146C267.177 124.602 273.83 117.887 277.001 114.597L288.083 118.736C287.081 123.443 285.112 132.936 285.252 133.254C285.428 133.651 277.36 140.513 273.662 142.612C270.704 144.291 252.267 149.324 243.419 151.631L227.264 150.669L203.642 155.831ZM193.57 149.175C194.139 150.727 202.186 151.719 206.138 152.022L227.453 147.286L241.311 146.914C249.355 144.903 266.152 140.566 268.986 139.314C272.529 137.75 280.623 132.879 280.534 132.636C280.463 132.442 283.688 126.265 285.31 123.201L276.358 121.237C273.082 123.529 266.239 128.219 265.076 128.642C263.624 129.171 250.082 136.025 246.918 135.252C243.754 134.48 233.156 134.764 231.34 135.425C229.524 136.086 212.961 134.694 210.694 135.244C208.426 135.795 197.886 140.731 195.514 143.244C193.141 145.757 192.859 147.234 193.57 149.175Z" fill="#FF9C40"/>
            <path fill-rule="evenodd" clip-rule="evenodd" d="M96.2945 184.471L98.9358 197.197L92.3262 213.228L79.3459 220.524L59.6396 216.442C57.5795 213.811 53.7189 208.401 54.7574 207.818C55.7958 207.234 61.6823 198.557 64.4958 194.291L84.1827 183.226L91.0022 183.182L96.2945 184.471ZM95.2286 197.875L93.0325 187.295L88.6324 186.223L82.9625 186.259L66.5944 195.46C64.2552 199.006 59.361 206.22 58.4977 206.706C57.6343 207.191 60.8441 211.688 62.5569 213.876L78.9411 217.27L89.7332 211.204L95.2286 197.875Z" fill="#FF9C40"/>
            <path fill-rule="evenodd" clip-rule="evenodd" d="M132.025 181.221L132.913 189.308C136.66 189 144.496 188.145 145.864 187.187C147.233 186.229 152.056 181.939 154.296 179.914L147.781 174.3L137.411 176.179L132.025 181.221ZM134.857 187.624L134.317 181.711L138.52 177.922L146.479 176.368L151.363 180.373C149.616 181.896 145.855 185.123 144.793 185.849C143.73 186.575 137.726 187.335 134.857 187.624Z" fill="#FF9C40"/>
            <path fill-rule="evenodd" clip-rule="evenodd" d="M126.46 127.103L120.01 138.858L120.089 152.207L128.435 157.909L140.006 157.733L155.012 151.141C158.013 149.823 163.056 148.054 162.199 143.077C161.342 138.1 162.316 133.211 160.829 129.849C159.342 126.487 156.189 123.411 154.073 121.664C151.956 119.917 148.294 119.741 145.217 118.862C142.756 118.159 131.687 124.063 126.46 127.103ZM122.735 138.664L128.449 128.739C132.992 126.126 142.605 121.037 144.716 121.593C147.355 122.288 150.507 122.386 152.306 123.82C154.106 125.254 156.78 127.786 158.016 130.58C159.252 133.374 158.347 137.479 159.019 141.633C159.69 145.787 155.323 147.335 152.721 148.478L139.707 154.195L129.737 154.496L122.625 149.835L122.735 138.664Z" fill="#FF9C40"/>
            <path fill-rule="evenodd" clip-rule="evenodd" d="M35.662 137.581L29.9109 146.39C30.372 148.581 32.5618 153.303 37.6323 154.665C42.7028 156.027 52.7795 156.387 57.184 156.397C59.901 155.652 65.328 152.998 65.3003 148.344C65.2658 142.525 67.1713 137.65 69.2236 135.402C70.8654 133.604 87.9128 122.555 96.2313 117.255C99.2072 115.948 105.437 112.583 106.547 109.583C107.934 105.832 110.837 103.211 111.281 100.772C111.726 98.3329 112.356 94.0175 113.91 90.6426C115.464 87.2676 109.589 80.8736 109.091 79.7464C108.592 78.6192 101.81 79.3552 101.477 78.6037C101.145 77.8523 96.3758 80.8449 87.8732 84.5801C81.0711 87.5683 73.3928 93.9328 70.404 96.7416L65.0974 103.111L59.9182 114.361L47.5894 119.777L38.584 132.708L35.662 137.581ZM34.7371 141.498L40.0003 134.491L42.6921 130.624L50.8947 120.319L61.5735 115.699L66.4619 106.827L71.2394 101.72C73.8953 99.4445 80.6801 94.257 86.5718 91.7082C93.9365 88.5221 98.1076 86.0419 98.3553 86.6105C98.6029 87.1791 104.377 86.3703 104.749 87.2232C105.12 88.076 109.806 92.8059 108.339 95.4674C106.873 98.129 106.146 101.484 105.66 103.383C105.174 105.283 102.6 107.41 101.257 110.356C100.183 112.712 94.7591 115.532 92.1815 116.647C84.9026 121.035 69.9771 130.172 68.5067 131.619C66.6688 133.427 64.8372 137.26 64.6055 141.753C64.4202 145.346 59.7075 147.588 57.3743 148.26C53.6464 148.408 45.133 148.488 40.902 147.615C36.6711 146.743 35.0292 143.174 34.7371 141.498Z" fill="#FF9C40"/>
            <path fill-rule="evenodd" clip-rule="evenodd" d="M36.0151 166.742L35.9118 172.587L39.9799 175.707L45.232 173.4L47.5414 167.478C48.2011 165.255 48.6951 161.172 45.3938 162.622L36.0151 166.742ZM38.1077 171.474L38.1824 167.574L44.4594 164.817C46.669 163.846 46.3346 166.571 45.8912 168.054L44.3408 172.007L40.8256 173.551L38.1077 171.474Z" fill="#FF9C40"/>
            <path fill-rule="evenodd" clip-rule="evenodd" d="M150.924 46.6684L143.827 52.9088L142.584 63.2692C143.661 65.0271 146.737 68.4043 150.435 67.8506C154.133 67.2968 161.73 63.3349 165.066 61.4232L169.97 51.2386C170.655 49.7481 171.118 46.5407 167.492 45.6355C163.866 44.7302 154.936 45.9469 150.924 46.6684ZM145.717 53.3249L151.622 48.146C154.956 47.5429 162.378 46.523 165.389 47.2679C168.401 48.0128 168.011 50.6701 167.44 51.9057L163.351 60.3486C160.577 61.9367 154.26 65.2288 151.187 65.6925C148.114 66.1563 145.562 63.363 144.671 61.9084L145.717 53.3249Z" fill="#FF9C40"/>
            <path fill-rule="evenodd" clip-rule="evenodd" d="M211.677 24.513L202.794 34.6886C202.797 37.9844 203.043 45.2231 204.001 47.8112C205.197 51.0464 208.882 54.7291 209.549 56.9253C210.216 59.1215 217.397 62.3477 219.439 62.0307C221.481 61.7138 226.99 61.5485 227.861 59.4873C228.731 57.4261 234.527 53.278 237.265 54.5491C240.004 55.8201 245.284 58.4214 247.631 59.8107C249.508 60.9222 254.283 61.2982 256.436 61.3473L259.186 56.3209C259.031 54.1697 258.622 49.5379 258.222 48.2201C257.721 46.573 257.729 42.3747 254.265 40.1238C250.802 37.873 244.071 33.3121 242.283 32.3535C240.495 31.3949 233.368 29.0514 231.105 27.9366C229.295 27.0447 221.572 26.8196 217.936 26.8186L211.677 24.513ZM206.684 36.0524L214.322 27.5407L219.637 29.4104C222.733 29.3854 229.309 29.5174 230.844 30.245C232.764 31.1545 238.816 33.0495 240.332 33.8327C241.848 34.6158 247.548 38.3547 250.482 40.1989C253.416 42.0431 253.379 45.5289 253.793 46.893C254.125 47.9842 254.44 51.827 254.557 53.612L252.179 57.8049C250.346 57.7794 246.281 57.5012 244.69 56.5917C242.702 55.4549 238.223 53.3327 235.9 52.2968C233.577 51.261 228.611 54.7463 227.855 56.4639C227.099 58.1815 222.406 58.3579 220.665 58.6355C218.923 58.9132 212.831 56.2857 212.278 54.467C211.726 52.6483 208.614 49.6169 207.618 46.9393C206.821 44.7972 206.663 38.7889 206.684 36.0524Z" fill="#FF9C40"/>
            <path fill-rule="evenodd" clip-rule="evenodd" d="M249.591 111.73L239.699 107.599L234.743 96.3929L238.87 94.58L250.802 98.2604L255.593 109.093L249.591 111.73ZM241.251 106.043L248.324 109.164L252.561 107.302L249.041 99.3436L240.523 96.5305L237.61 97.8101L241.251 106.043Z" fill="#FF9C40"/>
            <path fill-rule="evenodd" clip-rule="evenodd" d="M11.4516 181.102L1.20912 157.942L53.217 77.9922L89.6063 62.0063L158.988 13.2361L253.714 1.51241L317.981 60.7185L327.15 105.764L284.231 168.783L212.568 166.806L154.121 194.713L63.2182 244.461L23.6214 224.828L11.4516 181.102ZM12.4533 155.156L21.9579 176.647L33.2511 217.224L69.9955 235.442L154.35 189.278L208.586 163.382L275.087 165.216L314.913 106.736L306.405 64.9361L246.768 9.99475L158.866 20.8737L94.4823 66.1307L60.7145 80.9649L12.4533 155.156Z" fill="white"/>
            <path fill-rule="evenodd" clip-rule="evenodd" d="M203.642 155.831C198.915 154.905 189.18 152.419 188.056 149.878C186.652 146.703 186.549 144.378 188.594 140.635C190.64 136.892 201.558 130.199 204.057 129.575C206.557 128.951 226.404 133.032 228.34 132.181C230.277 131.33 242.63 132.067 246.571 133.654C250.511 135.242 264.389 125.827 265.938 125.146C267.177 124.602 273.83 117.887 277.001 114.597L288.083 118.736C287.081 123.443 285.112 132.936 285.252 133.254C285.428 133.651 277.36 140.513 273.662 142.612C270.704 144.291 252.267 149.324 243.419 151.631L227.264 150.669L203.642 155.831ZM193.57 149.175C194.139 150.727 202.186 151.719 206.138 152.022L227.453 147.286L241.311 146.914C249.355 144.903 266.152 140.566 268.986 139.314C272.529 137.75 280.623 132.879 280.534 132.636C280.463 132.442 283.688 126.265 285.31 123.201L276.358 121.237C273.082 123.529 266.239 128.219 265.076 128.642C263.624 129.171 250.082 136.025 246.918 135.252C243.754 134.48 233.156 134.764 231.34 135.425C229.524 136.086 212.961 134.694 210.694 135.244C208.426 135.795 197.886 140.731 195.514 143.244C193.141 145.757 192.859 147.234 193.57 149.175Z" stroke="#FF9C40"/>
            <path fill-rule="evenodd" clip-rule="evenodd" d="M96.2945 184.471L98.9358 197.197L92.3262 213.228L79.3459 220.524L59.6396 216.442C57.5795 213.811 53.7189 208.401 54.7574 207.818C55.7958 207.234 61.6823 198.557 64.4958 194.291L84.1827 183.226L91.0022 183.182L96.2945 184.471ZM95.2286 197.875L93.0325 187.295L88.6324 186.223L82.9625 186.259L66.5944 195.46C64.2552 199.006 59.361 206.22 58.4977 206.706C57.6343 207.191 60.8441 211.688 62.5569 213.876L78.9411 217.27L89.7332 211.204L95.2286 197.875Z" stroke="#FF9C40"/>
            <path fill-rule="evenodd" clip-rule="evenodd" d="M132.025 181.221L132.913 189.308C136.66 189 144.496 188.145 145.864 187.187C147.233 186.229 152.056 181.939 154.296 179.914L147.781 174.3L137.411 176.179L132.025 181.221ZM134.857 187.624L134.317 181.711L138.52 177.922L146.479 176.368L151.363 180.373C149.616 181.896 145.855 185.123 144.793 185.849C143.73 186.575 137.726 187.335 134.857 187.624Z" stroke="#FF9C40"/>
            <path fill-rule="evenodd" clip-rule="evenodd" d="M126.46 127.103L120.01 138.858L120.089 152.207L128.435 157.909L140.006 157.733L155.012 151.141C158.013 149.823 163.056 148.054 162.199 143.077C161.342 138.1 162.316 133.211 160.829 129.849C159.342 126.487 156.189 123.411 154.073 121.664C151.956 119.917 148.294 119.741 145.217 118.862C142.756 118.159 131.687 124.063 126.46 127.103ZM122.735 138.664L128.449 128.739C132.992 126.126 142.605 121.037 144.716 121.593C147.355 122.288 150.507 122.386 152.306 123.82C154.106 125.254 156.78 127.786 158.016 130.58C159.252 133.374 158.347 137.479 159.019 141.633C159.69 145.787 155.323 147.335 152.721 148.478L139.707 154.195L129.737 154.496L122.625 149.835L122.735 138.664Z" stroke="#FF9C40"/>
            <path fill-rule="evenodd" clip-rule="evenodd" d="M35.662 137.581L29.9109 146.39C30.372 148.581 32.5618 153.303 37.6323 154.665C42.7028 156.027 52.7795 156.387 57.184 156.397C59.901 155.652 65.328 152.998 65.3003 148.344C65.2658 142.525 67.1713 137.65 69.2236 135.402C70.8654 133.604 87.9128 122.555 96.2313 117.255C99.2072 115.948 105.437 112.583 106.547 109.583C107.934 105.832 110.837 103.211 111.281 100.772C111.726 98.3329 112.356 94.0175 113.91 90.6426C115.464 87.2676 109.589 80.8736 109.091 79.7464C108.592 78.6192 101.81 79.3552 101.477 78.6037C101.145 77.8523 96.3758 80.8449 87.8732 84.5801C81.0711 87.5683 73.3928 93.9328 70.404 96.7416L65.0974 103.111L59.9182 114.361L47.5894 119.777L38.584 132.708L35.662 137.581ZM34.7371 141.498L40.0003 134.491L42.6921 130.624L50.8947 120.319L61.5735 115.699L66.4619 106.827L71.2394 101.72C73.8953 99.4445 80.6801 94.257 86.5718 91.7082C93.9365 88.5221 98.1076 86.0419 98.3553 86.6105C98.6029 87.1791 104.377 86.3703 104.749 87.2232C105.12 88.076 109.806 92.8059 108.339 95.4674C106.873 98.129 106.146 101.484 105.66 103.383C105.174 105.283 102.6 107.41 101.257 110.356C100.183 112.712 94.7591 115.532 92.1815 116.647C84.9026 121.035 69.9771 130.172 68.5067 131.619C66.6688 133.427 64.8372 137.26 64.6055 141.753C64.4202 145.346 59.7075 147.588 57.3743 148.26C53.6464 148.408 45.133 148.488 40.902 147.615C36.6711 146.743 35.0292 143.174 34.7371 141.498Z" stroke="#FF9C40"/>
            <path fill-rule="evenodd" clip-rule="evenodd" d="M36.0151 166.742L35.9118 172.587L39.9799 175.707L45.232 173.4L47.5414 167.478C48.2011 165.255 48.6951 161.172 45.3938 162.622L36.0151 166.742ZM38.1077 171.474L38.1824 167.574L44.4594 164.817C46.669 163.846 46.3346 166.571 45.8912 168.054L44.3408 172.007L40.8256 173.551L38.1077 171.474Z" stroke="#FF9C40"/>
            <path fill-rule="evenodd" clip-rule="evenodd" d="M150.924 46.6684L143.827 52.9088L142.584 63.2692C143.661 65.0271 146.737 68.4043 150.435 67.8506C154.133 67.2968 161.73 63.3349 165.066 61.4232L169.97 51.2386C170.655 49.7481 171.118 46.5407 167.492 45.6355C163.866 44.7302 154.936 45.9469 150.924 46.6684ZM145.717 53.3249L151.622 48.146C154.956 47.5429 162.378 46.523 165.389 47.2679C168.401 48.0128 168.011 50.6701 167.44 51.9057L163.351 60.3486C160.577 61.9367 154.26 65.2288 151.187 65.6925C148.114 66.1563 145.562 63.363 144.671 61.9084L145.717 53.3249Z" stroke="#FF9C40"/>
            <path fill-rule="evenodd" clip-rule="evenodd" d="M211.677 24.513L202.794 34.6886C202.797 37.9844 203.043 45.2231 204.001 47.8112C205.197 51.0464 208.882 54.7291 209.549 56.9253C210.216 59.1215 217.397 62.3477 219.439 62.0307C221.481 61.7138 226.99 61.5485 227.861 59.4873C228.731 57.4261 234.527 53.278 237.265 54.5491C240.004 55.8201 245.284 58.4214 247.631 59.8107C249.508 60.9222 254.283 61.2982 256.436 61.3473L259.186 56.3209C259.031 54.1697 258.622 49.5379 258.222 48.2201C257.721 46.573 257.729 42.3747 254.265 40.1238C250.802 37.873 244.071 33.3121 242.283 32.3535C240.495 31.3949 233.368 29.0514 231.105 27.9366C229.295 27.0447 221.572 26.8196 217.936 26.8186L211.677 24.513ZM206.684 36.0524L214.322 27.5407L219.637 29.4104C222.733 29.3854 229.309 29.5174 230.844 30.245C232.764 31.1545 238.816 33.0495 240.332 33.8327C241.848 34.6158 247.548 38.3547 250.482 40.1989C253.416 42.0431 253.379 45.5289 253.793 46.893C254.125 47.9842 254.44 51.827 254.557 53.612L252.179 57.8049C250.346 57.7794 246.281 57.5012 244.69 56.5917C242.702 55.4549 238.223 53.3327 235.9 52.2968C233.577 51.261 228.611 54.7463 227.855 56.4639C227.099 58.1815 222.406 58.3579 220.665 58.6355C218.923 58.9132 212.831 56.2857 212.278 54.467C211.726 52.6483 208.614 49.6169 207.618 46.9393C206.821 44.7972 206.663 38.7889 206.684 36.0524Z" stroke="#FF9C40"/>
            <path fill-rule="evenodd" clip-rule="evenodd" d="M249.591 111.73L239.699 107.599L234.743 96.3929L238.87 94.58L250.802 98.2604L255.593 109.093L249.591 111.73ZM241.251 106.043L248.324 109.164L252.561 107.302L249.041 99.3436L240.523 96.5305L237.61 97.8101L241.251 106.043Z" stroke="#FF9C40"/>
            <path fill-rule="evenodd" clip-rule="evenodd" d="M11.4516 181.102L1.20912 157.942L53.217 77.9922L89.6063 62.0063L158.988 13.2361L253.714 1.51241L317.981 60.7185L327.15 105.764L284.231 168.783L212.568 166.806L154.121 194.713L63.2182 244.461L23.6214 224.828L11.4516 181.102ZM12.4533 155.156L21.9579 176.647L33.2511 217.224L69.9955 235.442L154.35 189.278L208.586 163.382L275.087 165.216L314.913 106.736L306.405 64.9361L246.768 9.99475L158.866 20.8737L94.4823 66.1307L60.7145 80.9649L12.4533 155.156Z" stroke="#FF9C40"/>
        </svg>