<svg width="73" height="66" viewBox="0 0 73 66" fill="none" xmlns="http://www.w3.org/2000/svg">
<path fill-rule="evenodd" clip-rule="evenodd" d="M10.7005 39.5175L7.69666 47.2372C8.32351 48.6059 9.74205 51.3759 10.4013 51.5066C11.2255 51.6699 23.4511 50.699 23.259 49.9822C23.0669 49.2653 28.7352 42.7524 28.4471 41.6772C28.159 40.6019 27.3504 34.672 26.7943 34.0527C26.3494 33.5572 20.9361 33.0613 18.285 32.8753L12.5006 37.4985L10.7005 39.5175ZM9.15283 46.847L11.6207 40.0392L18.6692 34.309L25.8942 35.0622L26.9909 42.0673L21.8787 49.1995L10.8413 50.2362L9.15283 46.847Z" fill="#FF9C40"/>
<path fill-rule="evenodd" clip-rule="evenodd" d="M34.1279 49.3748L32.8839 52.0131L35.0883 52.9591L38.5367 51.2668L37.006 50.0102L34.1279 49.3748ZM33.3669 51.8837L34.4424 50.1794L37.8772 51.3296L35.0894 52.5943L33.3669 51.8837Z" fill="#FF9C40"/>
<path fill-rule="evenodd" clip-rule="evenodd" d="M46.5577 43.7393L49.0612 32.6962L57.6418 25.4029L66.399 24.5931L62.8591 33.2248C60.5163 35.6453 55.7771 40.5775 55.5627 40.9423C55.3483 41.307 50.8116 43.1117 48.57 43.9684L46.5577 43.7393ZM49.9814 33.2179L47.9178 42.9907L48.1858 42.5347L49.374 42.6005L54.5465 40.0621L61.8429 32.3446L64.7708 25.7977L57.93 26.4782L49.9814 33.2179Z" fill="#FF9C40"/>
<path fill-rule="evenodd" clip-rule="evenodd" d="M37.4742 12.7514L37.0744 17.0842L39.7389 18.2911L44.1632 14.4165L43.0308 11.6466L39.2944 12.2637L37.4742 12.7514ZM38.3385 15.9772L38.9504 13.8925L42.2268 13.0145L42.5149 14.0898L39.8148 17.1183L38.3385 15.9772Z" fill="#FF9C40"/>
<path fill-rule="evenodd" clip-rule="evenodd" d="M18.5641 19.355L19.9644 21.6689C19.4284 22.5808 18.3756 24.4764 18.4525 24.7631C18.5485 25.1215 15.4843 28.2475 15.1203 28.3451L12.572 29.0279C12.2332 28.7345 11.5902 27.9848 11.7277 27.3333C11.8997 26.5189 13.0476 23.5222 13.4117 23.4247C13.7029 23.3466 15.6398 21.5471 16.5719 20.6571L18.5641 19.355ZM12.8199 27.0407L13.9678 24.044L18.1241 20.6253L18.8723 21.9615L16.9002 24.7949L14.5641 27.7258L13.0119 27.7575L12.8199 27.0407Z" fill="#FF9C40"/>
<path fill-rule="evenodd" clip-rule="evenodd" d="M37.8693 1.12072L10.8991 19.8722L1.02774 47.1034L10.0263 64.6685L37.1218 62.4023L65.3763 44.0751L72.2237 23.0324L57.2441 2.07583L37.8693 1.12072ZM2.637 47.3136L12.0096 20.4733L38.2576 2.56973L56.7264 3.8327L70.4034 23.5201L63.9 42.934L36.6416 60.6102L10.9006 62.6991L2.637 47.3136Z" fill="white"/>
<path d="M10.5139 39.3511L10.4839 39.3848L10.4675 39.4268L7.46367 47.1466L7.42532 47.2451L7.46936 47.3413C7.78501 48.0305 8.30018 49.0731 8.82112 49.9625C9.08114 50.4064 9.34648 50.8189 9.59224 51.1314C9.71491 51.2874 9.83737 51.4245 9.9562 51.5293C10.0696 51.6292 10.2046 51.7224 10.3527 51.7518C10.4299 51.7671 10.5479 51.7726 10.6805 51.7742C10.8203 51.776 10.9976 51.7735 11.2058 51.7673C11.6224 51.7548 12.1698 51.7273 12.8007 51.6876C14.063 51.6082 15.6654 51.4795 17.236 51.3232C18.8055 51.1671 20.3479 50.983 21.4881 50.7923C22.0565 50.6973 22.534 50.5992 22.867 50.4997C23.0308 50.4508 23.176 50.3969 23.2818 50.3349C23.3336 50.3045 23.3939 50.2619 23.4397 50.2022C23.4873 50.1401 23.5275 50.046 23.5049 49.9362C23.506 49.9296 23.5096 49.908 23.5245 49.866C23.5489 49.7967 23.5927 49.7028 23.6579 49.5836C23.7877 49.3462 23.9865 49.0372 24.2352 48.6748C24.6316 48.0974 25.1429 47.4018 25.679 46.6725C25.8152 46.4873 25.9529 46.3 26.0907 46.1118C26.7688 45.1864 27.4492 44.2424 27.9424 43.4611C28.1886 43.071 28.3928 42.7141 28.527 42.4159C28.594 42.2669 28.6467 42.1258 28.6773 41.998C28.7068 41.8751 28.7224 41.7387 28.6886 41.6125C28.6201 41.3571 28.5177 40.7984 28.3918 40.0763C28.3552 39.867 28.3169 39.6448 28.2771 39.414C28.1809 38.8567 28.0761 38.2491 27.9672 37.6493C27.8132 36.8012 27.6499 35.9626 27.4897 35.2957C27.4097 34.9626 27.3293 34.6676 27.2499 34.4336C27.2102 34.3167 27.1695 34.2113 27.1276 34.1222C27.0872 34.0363 27.0392 33.9512 26.9803 33.8857C26.9193 33.8178 26.8365 33.7697 26.7622 33.7342C26.6829 33.6964 26.5885 33.6615 26.4844 33.6289C26.2758 33.5636 26.0072 33.5008 25.6976 33.4405C25.0773 33.3197 24.269 33.2046 23.3968 33.0997C21.651 32.8899 19.6306 32.7191 18.3025 32.6259L18.2052 32.6191L18.1289 32.68L12.3445 37.3032L12.328 37.3164L12.314 37.3321L10.5139 39.3511ZM34.1818 49.1307L33.9869 49.0877L33.9018 49.2682L32.6578 51.9065L32.5474 52.1407L32.7854 52.2428L34.9897 53.1888L35.0953 53.2341L35.1985 53.1835L38.6468 51.4912L38.9956 51.32L38.6953 51.0735L37.1646 49.8169L37.1184 49.7789L37.0599 49.766L34.1818 49.1307ZM34.5491 50.4788L37.1947 51.3647L35.0847 52.3219L33.7369 51.7659L34.5491 50.4788ZM46.3139 43.684L46.2522 43.9561L46.5294 43.9877L48.5417 44.2168L48.6023 44.2237L48.6592 44.202C49.7815 43.773 51.4787 43.1067 52.9232 42.5014C53.6449 42.199 54.3065 41.9106 54.8025 41.6742C55.0499 41.5562 55.2603 41.4492 55.4176 41.3584C55.4959 41.3132 55.5655 41.2695 55.6215 41.2284C55.6687 41.1937 55.7367 41.1396 55.7782 41.0689C55.7771 41.0708 55.7808 41.0646 55.7947 41.0465C55.8072 41.03 55.8244 41.0085 55.8467 40.9816C55.8912 40.9279 55.9522 40.8574 56.0288 40.771C56.1817 40.5986 56.3921 40.3681 56.6472 40.0928C57.1571 39.5425 57.8419 38.8171 58.5939 38.0267C60.0977 36.4462 61.8677 34.6086 63.0388 33.3987L63.0722 33.3641L63.0904 33.3197L66.6303 24.688L66.7869 24.3062L66.376 24.3442L57.6188 25.154L57.5401 25.1613L57.4799 25.2125L48.8993 32.5057L48.8358 32.5597L48.8174 32.6409L46.3139 43.684ZM49.3225 42.3473L48.3209 42.2918L50.2083 33.3533L58.0322 26.7193L64.3666 26.0891L61.6321 32.2037L54.3959 39.8575L49.3225 42.3473ZM37.4094 12.5099L37.2412 12.555L37.2252 12.7284L36.8255 17.0613L36.8091 17.2385L36.9713 17.312L39.6357 18.5188L39.7824 18.5853L39.9036 18.4792L44.3279 14.6046L44.4621 14.487L44.3946 14.3219L43.2622 11.552L43.1868 11.3675L42.9901 11.4L39.2536 12.017L39.2415 12.019L39.2297 12.0222L37.4094 12.5099ZM18.7779 19.2255L18.6439 19.0041L18.4273 19.1457L16.4351 20.4478L16.4159 20.4604L16.3992 20.4763C15.9344 20.9202 15.2192 21.5906 14.5846 22.1592C14.2671 22.4437 13.9718 22.7008 13.7391 22.8908C13.6225 22.986 13.5244 23.0621 13.4486 23.1157C13.4105 23.1425 13.3809 23.1618 13.3592 23.1744C13.3478 23.181 13.3412 23.1843 13.3386 23.1855C13.2584 23.2093 13.1982 23.2598 13.1609 23.296C13.1176 23.3378 13.0766 23.3886 13.0386 23.4416C12.9623 23.548 12.8808 23.6878 12.7978 23.8457C12.6311 24.1631 12.4447 24.5805 12.2664 25.0153C11.9119 25.8796 11.5742 26.8505 11.4831 27.2817C11.3946 27.7007 11.56 28.12 11.7577 28.4448C11.9593 28.7763 12.223 29.0563 12.4083 29.2169L12.5086 29.3037L12.6367 29.2694L15.185 28.5866C15.2511 28.5688 15.3142 28.5296 15.3576 28.5006C15.4087 28.4664 15.4667 28.4226 15.5288 28.3725C15.6536 28.2718 15.8075 28.136 15.978 27.978C16.3195 27.6614 16.7373 27.2465 17.1398 26.8244C17.5419 26.4028 17.9324 25.97 18.2178 25.6176C18.3598 25.4423 18.4803 25.2814 18.5635 25.1488C18.6047 25.0832 18.6415 25.0172 18.6666 24.9552C18.6845 24.9109 18.7178 24.8203 18.6991 24.721C18.7007 24.7079 18.705 24.6854 18.7143 24.652C18.7328 24.5851 18.7654 24.4946 18.8119 24.3826C18.9043 24.1597 19.0418 23.8744 19.201 23.5647C19.5187 22.9465 19.9134 22.249 20.18 21.7955L20.2555 21.667L20.1783 21.5394L18.7779 19.2255ZM37.8817 0.871027L37.7966 0.866833L37.7266 0.91546L10.7563 19.6669L10.6911 19.7123L10.664 19.787L0.792705 47.0182L0.755613 47.1205L0.805237 47.2173L9.80377 64.7825L9.88016 64.9316L10.0471 64.9176L37.1426 62.6514L37.2052 62.6462L37.2578 62.6121L65.5123 44.2848L65.5866 44.2367L65.614 44.1525L72.4614 23.1098L72.5004 22.9897L72.427 22.887L57.4474 1.93045L57.3771 1.83209L57.2564 1.82613L37.8817 0.871027ZM10.9886 49.9713L9.42439 46.8315L11.8321 40.1895L18.7464 34.5684L25.677 35.2909L26.7281 42.0049L21.7419 48.9613L10.9886 49.9713ZM39.7833 16.778L38.6265 15.8838L39.1508 14.0976L42.05 13.3207L42.2385 14.0242L39.7833 16.778ZM13.2027 27.5036L13.0823 27.0543L14.1776 24.1951L18.052 21.0083L18.5777 21.9471L16.6997 24.6454L14.4418 27.4782L13.2027 27.5036ZM2.90928 47.2922L12.2184 20.6334L38.3269 2.82506L56.5895 4.07393L70.1265 23.5597L63.6907 42.7718L36.5585 60.3661L11.0435 62.4367L2.90928 47.2922Z" stroke="#FEF7FF" stroke-width="0.5"/>
<path d="M10.5139 39.3511L10.4839 39.3848L10.4675 39.4268L7.46367 47.1466L7.42532 47.2451L7.46936 47.3413C7.78501 48.0305 8.30018 49.0731 8.82112 49.9625C9.08114 50.4064 9.34648 50.8189 9.59224 51.1314C9.71491 51.2874 9.83737 51.4245 9.9562 51.5293C10.0696 51.6292 10.2046 51.7224 10.3527 51.7518C10.4299 51.7671 10.5479 51.7726 10.6805 51.7742C10.8203 51.776 10.9976 51.7735 11.2058 51.7673C11.6224 51.7548 12.1698 51.7273 12.8007 51.6876C14.063 51.6082 15.6654 51.4795 17.236 51.3232C18.8055 51.1671 20.3479 50.983 21.4881 50.7923C22.0565 50.6973 22.534 50.5992 22.867 50.4997C23.0308 50.4508 23.176 50.3969 23.2818 50.3349C23.3336 50.3045 23.3939 50.2619 23.4397 50.2022C23.4873 50.1401 23.5275 50.046 23.5049 49.9362C23.506 49.9296 23.5096 49.908 23.5245 49.866C23.5489 49.7967 23.5927 49.7028 23.6579 49.5836C23.7877 49.3462 23.9865 49.0372 24.2352 48.6748C24.6316 48.0974 25.1429 47.4018 25.679 46.6725C25.8152 46.4873 25.9529 46.3 26.0907 46.1118C26.7688 45.1864 27.4492 44.2424 27.9424 43.4611C28.1886 43.071 28.3928 42.7141 28.527 42.4159C28.594 42.2669 28.6467 42.1258 28.6773 41.998C28.7068 41.8751 28.7224 41.7387 28.6886 41.6125C28.6201 41.3571 28.5177 40.7984 28.3918 40.0763C28.3552 39.867 28.3169 39.6448 28.2771 39.414C28.1809 38.8567 28.0761 38.2491 27.9672 37.6493C27.8132 36.8012 27.6499 35.9626 27.4897 35.2957C27.4097 34.9626 27.3293 34.6676 27.2499 34.4336C27.2102 34.3167 27.1695 34.2113 27.1276 34.1222C27.0872 34.0363 27.0392 33.9512 26.9803 33.8857C26.9193 33.8178 26.8365 33.7697 26.7622 33.7342C26.6829 33.6964 26.5885 33.6615 26.4844 33.6289C26.2758 33.5636 26.0072 33.5008 25.6976 33.4405C25.0773 33.3197 24.269 33.2046 23.3968 33.0997C21.651 32.8899 19.6306 32.7191 18.3025 32.6259L18.2052 32.6191L18.1289 32.68L12.3445 37.3032L12.328 37.3164L12.314 37.3321L10.5139 39.3511ZM34.1818 49.1307L33.9869 49.0877L33.9018 49.2682L32.6578 51.9065L32.5474 52.1407L32.7854 52.2428L34.9897 53.1888L35.0953 53.2341L35.1985 53.1835L38.6468 51.4912L38.9956 51.32L38.6953 51.0735L37.1646 49.8169L37.1184 49.7789L37.0599 49.766L34.1818 49.1307ZM34.5491 50.4788L37.1947 51.3647L35.0847 52.3219L33.7369 51.7659L34.5491 50.4788ZM46.3139 43.684L46.2522 43.9561L46.5294 43.9877L48.5417 44.2168L48.6023 44.2237L48.6592 44.202C49.7815 43.773 51.4787 43.1067 52.9232 42.5014C53.6449 42.199 54.3065 41.9106 54.8025 41.6742C55.0499 41.5562 55.2603 41.4492 55.4176 41.3584C55.4959 41.3132 55.5655 41.2695 55.6215 41.2284C55.6687 41.1937 55.7367 41.1396 55.7782 41.0689C55.7771 41.0708 55.7808 41.0646 55.7947 41.0465C55.8072 41.03 55.8244 41.0085 55.8467 40.9816C55.8912 40.9279 55.9522 40.8574 56.0288 40.771C56.1817 40.5986 56.3921 40.3681 56.6472 40.0928C57.1571 39.5425 57.8419 38.8171 58.5939 38.0267C60.0977 36.4462 61.8677 34.6086 63.0388 33.3987L63.0722 33.3641L63.0904 33.3197L66.6303 24.688L66.7869 24.3062L66.376 24.3442L57.6188 25.154L57.5401 25.1613L57.4799 25.2125L48.8993 32.5057L48.8358 32.5597L48.8174 32.6409L46.3139 43.684ZM49.3225 42.3473L48.3209 42.2918L50.2083 33.3533L58.0322 26.7193L64.3666 26.0891L61.6321 32.2037L54.3959 39.8575L49.3225 42.3473ZM37.4094 12.5099L37.2412 12.555L37.2252 12.7284L36.8255 17.0613L36.8091 17.2385L36.9713 17.312L39.6357 18.5188L39.7824 18.5853L39.9036 18.4792L44.3279 14.6046L44.4621 14.487L44.3946 14.3219L43.2622 11.552L43.1868 11.3675L42.9901 11.4L39.2536 12.017L39.2415 12.019L39.2297 12.0222L37.4094 12.5099ZM18.7779 19.2255L18.6439 19.0041L18.4273 19.1457L16.4351 20.4478L16.4159 20.4604L16.3992 20.4763C15.9344 20.9202 15.2192 21.5906 14.5846 22.1592C14.2671 22.4437 13.9718 22.7008 13.7391 22.8908C13.6225 22.986 13.5244 23.0621 13.4486 23.1157C13.4105 23.1425 13.3809 23.1618 13.3592 23.1744C13.3478 23.181 13.3412 23.1843 13.3386 23.1855C13.2584 23.2093 13.1982 23.2598 13.1609 23.296C13.1176 23.3378 13.0766 23.3886 13.0386 23.4416C12.9623 23.548 12.8808 23.6878 12.7978 23.8457C12.6311 24.1631 12.4447 24.5805 12.2664 25.0153C11.9119 25.8796 11.5742 26.8505 11.4831 27.2817C11.3946 27.7007 11.56 28.12 11.7577 28.4448C11.9593 28.7763 12.223 29.0563 12.4083 29.2169L12.5086 29.3037L12.6367 29.2694L15.185 28.5866C15.2511 28.5688 15.3142 28.5296 15.3576 28.5006C15.4087 28.4664 15.4667 28.4226 15.5288 28.3725C15.6536 28.2718 15.8075 28.136 15.978 27.978C16.3195 27.6614 16.7373 27.2465 17.1398 26.8244C17.5419 26.4028 17.9324 25.97 18.2178 25.6176C18.3598 25.4423 18.4803 25.2814 18.5635 25.1488C18.6047 25.0832 18.6415 25.0172 18.6666 24.9552C18.6845 24.9109 18.7178 24.8203 18.6991 24.721C18.7007 24.7079 18.705 24.6854 18.7143 24.652C18.7328 24.5851 18.7654 24.4946 18.8119 24.3826C18.9043 24.1597 19.0418 23.8744 19.201 23.5647C19.5187 22.9465 19.9134 22.249 20.18 21.7955L20.2555 21.667L20.1783 21.5394L18.7779 19.2255ZM37.8817 0.871027L37.7966 0.866833L37.7266 0.91546L10.7563 19.6669L10.6911 19.7123L10.664 19.787L0.792705 47.0182L0.755613 47.1205L0.805237 47.2173L9.80377 64.7825L9.88016 64.9316L10.0471 64.9176L37.1426 62.6514L37.2052 62.6462L37.2578 62.6121L65.5123 44.2848L65.5866 44.2367L65.614 44.1525L72.4614 23.1098L72.5004 22.9897L72.427 22.887L57.4474 1.93045L57.3771 1.83209L57.2564 1.82613L37.8817 0.871027ZM10.9886 49.9713L9.42439 46.8315L11.8321 40.1895L18.7464 34.5684L25.677 35.2909L26.7281 42.0049L21.7419 48.9613L10.9886 49.9713ZM39.7833 16.778L38.6265 15.8838L39.1508 14.0976L42.05 13.3207L42.2385 14.0242L39.7833 16.778ZM13.2027 27.5036L13.0823 27.0543L14.1776 24.1951L18.052 21.0083L18.5777 21.9471L16.6997 24.6454L14.4418 27.4782L13.2027 27.5036ZM2.90928 47.2922L12.2184 20.6334L38.3269 2.82506L56.5895 4.07393L70.1265 23.5597L63.6907 42.7718L36.5585 60.3661L11.0435 62.4367L2.90928 47.2922Z" stroke="#FF9C40" stroke-width="0.5"/>
</svg>
