<!-- sample rectangle -->
<svg width="166" height="121" viewBox="0 0 166 121" fill="none" xmlns="http://www.w3.org/2000/svg">
<path fill-rule="evenodd" clip-rule="evenodd" d="M31.9677 28.7657L21.8821 34.1267L19.0481 39.9976L24.6882 52.1298L39.261 58.0106L47.499 50.0916L46.2627 38.6737L40.9559 33.4444L31.9677 28.7657ZM21.4653 40.1676L24.5355 36.7413L33.3014 32.9062L42.6368 38.4187L44.7345 49.0878L37.8718 54.6755L26.0913 49.3957L21.4653 40.1676Z" fill="#4053FF"/>
<path fill-rule="evenodd" clip-rule="evenodd" d="M55.0702 63.5736L53.1253 68.293L60.2103 71.2192L63.7388 67.0159L62.0857 61.6388L58.057 61.3555L55.0702 63.5736ZM55.7648 65.2412L57.8903 63.7719L60.7937 62.762L62.5302 66.9309L59.1406 69.1206L55.2508 66.8237L55.7648 65.2412Z" fill="#4053FF"/>
<path fill-rule="evenodd" clip-rule="evenodd" d="M34.2737 77.4891L36.9826 91.034L57.1817 103.38L70.1153 97.815L72.8798 87.0831L66.5033 79.7552L50.2218 81.0385L43.5397 78.1406L38.2052 73.3141L34.2737 77.4891ZM35.8574 78.0052L38.4413 75.7588L42.9979 80.1259L50.0829 83.0522L66.3644 81.7689L70.8099 87.7469L68.99 96.5219L56.4871 101.713L38.2746 89.9108L35.8574 78.0052Z" fill="#4053FF"/>
<path fill-rule="evenodd" clip-rule="evenodd" d="M93.8846 99.4863L85.8411 104.586L86.1328 106.225L93.4956 105.124L109.43 103.007L116.932 99.8927L113.986 95.6388L106.735 95.129L101.734 97.2054L93.8846 99.4863ZM95.8434 100.433L87.4526 104.7L106.665 102.004L113.306 99.6378L113.097 96.7904L106.651 96.3371L102.456 98.4702L95.8434 100.433Z" fill="#4053FF"/>
<path fill-rule="evenodd" clip-rule="evenodd" d="M98.0662 79.9511L103.317 62.5145L120.238 51.9685L141.229 46.9696L147.244 59.5329C147.29 66.6854 147.044 81.2095 145.688 82.0854C143.993 83.1803 136.436 87.1004 132.81 86.8454L117.904 85.7974L109.61 82.7862L102.678 83.5128L98.0662 79.9511ZM103.984 64.5848L102.178 79.0262L103.623 81.5558L109.749 80.7725L118.043 83.7837L132.949 84.8318L144.619 79.9868L145.23 59.3912L141.034 49.7887L121.683 54.4982L103.984 64.5848Z" fill="#4053FF"/>
<path fill-rule="evenodd" clip-rule="evenodd" d="M81.2291 18.8749L70.2265 25.7902C70.0645 30.0954 70.0404 39.0505 71.2406 40.4299C72.4409 41.8093 84.753 44.0778 90.759 45.0397C96.6817 43.2978 108.952 39.5203 110.652 38.3449C112.778 36.8756 119.724 30.0798 119.78 29.2743C119.835 28.4689 119.766 23.6079 118.293 21.481C116.821 19.354 112.931 17.0571 110.569 16.0817C108.208 15.1063 98.1635 13.9954 97.3578 13.9388C96.7132 13.8935 86.3367 17.2107 81.2291 18.8749ZM73.0466 37.7241L73.769 27.2533L73.8524 26.0451L82.3266 20.5708L97.1633 16.7579L109.249 17.6077L116.571 22.9785L117.765 29.1327L109.208 35.8152L89.7727 41.7329L73.0466 37.7241Z" fill="#4053FF"/>
<path fill-rule="evenodd" clip-rule="evenodd" d="M0.918881 50.4586L18.2702 16.0669L54.7508 15.3945L81.9793 8.00137L113.639 0.919848L165.346 49.4746L157.538 92.2262L109.958 107.091L63.6971 120.43L36.288 101.102L21.0901 86.6791L0.918881 50.4586ZM20.4651 19.4587L4.54471 50.7135L22.3821 85.5559C34.445 96.521 59.6239 118.444 63.836 118.417C69.1011 118.382 152.593 93.4972 155.232 90.4453C157.344 88.0039 161.474 62.5568 163.276 50.1384L113.042 3.71059L81.8403 10.015L54.5285 18.6163L20.4651 19.4587Z" fill="black"/>
<path d="M132.81 86.8454C136.436 87.1004 143.993 83.1803 145.688 82.0854C147.044 81.2095 147.29 66.6854 147.244 59.5329L141.229 46.9696L120.238 51.9685L103.317 62.5145L98.0662 79.9511L102.678 83.5128L109.61 82.7862L117.904 85.7974M132.81 86.8454C129.91 86.6415 121.664 86.0617 117.904 85.7974M132.81 86.8454L117.904 85.7974M4.54471 50.7135L20.4651 19.4587L54.5285 18.6163L81.8403 10.015L113.042 3.71059L163.276 50.1384C161.474 62.5568 157.344 88.0039 155.232 90.4453C152.593 93.4972 69.1011 118.382 63.836 118.417C59.6239 118.444 34.445 96.521 22.3821 85.5559L4.54471 50.7135ZM31.9677 28.7657L21.8821 34.1267L19.0481 39.9976L24.6882 52.1298L39.261 58.0106L47.499 50.0916L46.2627 38.6737L40.9559 33.4444L31.9677 28.7657ZM34.2737 77.4891L36.9826 91.034L57.1817 103.38L70.1153 97.815L72.8798 87.0831L66.5033 79.7552L50.2218 81.0385L43.5397 78.1406L38.2052 73.3141L34.2737 77.4891ZM24.5355 36.7413L21.4653 40.1676L26.0913 49.3957L37.8718 54.6755L44.7345 49.0878L42.6368 38.4187L33.3014 32.9062L24.5355 36.7413ZM38.4413 75.7588L35.8574 78.0052L38.2746 89.9108L56.4871 101.713L68.99 96.5219L70.8099 87.7469L66.3644 81.7689L50.0829 83.0522L42.9979 80.1259L38.4413 75.7588ZM102.178 79.0262L103.984 64.5848L121.683 54.4982L141.034 49.7887L145.23 59.3912L144.619 79.9868L132.949 84.8318L118.043 83.7837L109.749 80.7725L103.623 81.5558L102.178 79.0262ZM81.2291 18.8749L70.2265 25.7902C70.0645 30.0954 70.0404 39.0505 71.2406 40.4299C72.4409 41.8093 84.753 44.0778 90.759 45.0397C96.6817 43.2978 108.952 39.5203 110.652 38.3449C112.778 36.8756 119.724 30.0798 119.78 29.2743C119.835 28.4689 119.766 23.6079 118.293 21.481C116.821 19.354 112.931 17.0571 110.569 16.0817C108.208 15.1063 98.1635 13.9954 97.3578 13.9388C96.7132 13.8935 86.3367 17.2107 81.2291 18.8749ZM73.769 27.2533L73.0466 37.7241L89.7727 41.7329L109.208 35.8152L117.765 29.1327L116.571 22.9785L109.249 17.6077L97.1633 16.7579L82.3266 20.5708L73.8524 26.0451L73.769 27.2533ZM55.0702 63.5736L53.1253 68.293L60.2103 71.2192L63.7388 67.0159L62.0857 61.6388L58.057 61.3555L55.0702 63.5736ZM57.8903 63.7719L55.7648 65.2412L55.2508 66.8237L59.1406 69.1206L62.5302 66.9309L60.7937 62.762L57.8903 63.7719ZM93.8846 99.4863L85.8411 104.586L86.1328 106.225L93.4956 105.124L109.43 103.007L116.932 99.8927L113.986 95.6388L106.735 95.129L101.734 97.2054L93.8846 99.4863ZM87.4526 104.7L95.8434 100.433L102.456 98.4702L106.651 96.3371L113.097 96.7904L113.306 99.6378L106.665 102.004L87.4526 104.7ZM0.918881 50.4586L18.2702 16.0669L54.7508 15.3945L81.9793 8.00137L113.639 0.919848L165.346 49.4746L157.538 92.2262L109.958 107.091L63.6971 120.43L36.288 101.102L21.0901 86.6791L0.918881 50.4586Z" stroke="#4053FF"/>
</svg>

