<!-- sample rectangle -->
<svg width="101" height="70" viewBox="0 0 101 70" fill="none" xmlns="http://www.w3.org/2000/svg">
<path fill-rule="evenodd" clip-rule="evenodd" d="M21.0534 22.336L11.8749 28.5492C11.5057 30.5379 10.9213 34.6776 11.5366 35.3261C12.3057 36.1368 26.3173 44.4213 26.6585 43.4839C26.9996 42.5465 38.1443 39.7028 38.6561 38.2968C39.1679 36.8907 42.837 29.7338 42.7083 28.6254C42.6053 27.7387 37.1111 23.0497 34.3768 20.816L24.5549 21.4873L21.0534 22.336ZM13.7543 29.2332L21.652 23.6154L33.6945 22.6907L40.9576 29.0497L36.7767 37.6127L25.7607 41.5648L12.9881 34.2621L13.7543 29.2332Z" fill="#4053FF"/>
<path fill-rule="evenodd" clip-rule="evenodd" d="M38.3208 50.9133L34.948 52.8703L36.6149 55.6001L41.6545 56.3729L41.3972 54.1561L38.3208 50.9133ZM36.8274 53.5544L37.6384 52.788L40.1163 54.7515L38.0664 54.5361L36.8274 53.5544Z" fill="#4053FF"/>
<path fill-rule="evenodd" clip-rule="evenodd" d="M56.7286 54.4285L67.9123 44.1682L82.8158 42.6926L92.9399 48.5005L82.4805 55.3091C78.0823 56.1852 69.1577 57.997 68.6454 58.2351C68.133 58.4732 61.8261 56.9916 58.7367 56.221L56.7286 54.4285ZM68.5108 45.4476L58.7786 54.6439L59.419 54.3462L60.658 55.3279L68.2174 56.487L82.0526 53.561L90.2495 48.5828L82.304 44.0986L68.5108 45.4476Z" fill="#4053FF"/>
<path fill-rule="evenodd" clip-rule="evenodd" d="M70.63 13.3109L66.8742 17.7824L68.8403 21.1519L76.6123 20.2652L77.5071 16.3448L72.9793 14.166L70.63 13.3109ZM69.0947 17.5291L71.3572 15.6987L75.5858 17.2378L75.0741 18.6438L69.8219 19.9169L69.0947 17.5291Z" fill="#4053FF"/>
<path fill-rule="evenodd" clip-rule="evenodd" d="M45.0458 6.12213L44.7914 9.74494C43.5105 10.3403 40.9147 11.6247 40.7782 11.9997C40.6076 12.4684 34.8856 13.5704 34.4158 13.3994L31.1269 12.2023C30.9842 11.6196 30.8611 10.3009 31.51 9.68786C32.321 8.9215 35.8643 6.49575 36.3342 6.66676C36.71 6.80357 40.1917 6.30155 41.8856 6.03343L45.0458 6.12213ZM32.9195 10.2009L36.4628 7.77514L43.5944 7.18616L43.3819 9.23191L39.0694 10.847L34.2871 12.291L32.5783 11.1383L32.9195 10.2009Z" fill="#4053FF"/>
<path fill-rule="evenodd" clip-rule="evenodd" d="M79.9763 0.789457L36.3312 0.827185L4.74042 23.2986L1.03818 49.5513L32.1796 67.7859L76.893 69.1986L100.457 51.2367L100.269 16.6679L79.9763 0.789457ZM7.55949 24.3246L37.1871 4.32333L78.9527 3.60157L98.0069 18.4983L98.1082 50.3816L76.1658 66.8108L33.0326 65.4425L3.13007 48.1896L7.55949 24.3246Z" fill="black"/>
<path d="M34.4158 13.3994C34.8856 13.5704 40.6076 12.4684 40.7782 11.9997C40.9147 11.6247 43.5105 10.3403 44.7914 9.74494L45.0458 6.12213L41.8856 6.03343C40.1917 6.30155 36.71 6.80357 36.3342 6.66676C35.8643 6.49575 32.321 8.9215 31.51 9.68786C30.8611 10.3009 30.9842 11.6196 31.1269 12.2023M34.4158 13.3994C34.0399 13.2626 32.0666 12.5443 31.1269 12.2023M34.4158 13.3994L31.1269 12.2023M79.9763 0.789457L36.3312 0.827185L4.74042 23.2986L1.03818 49.5513L32.1796 67.7859L76.893 69.1986L100.457 51.2367L100.269 16.6679L79.9763 0.789457ZM37.1871 4.32333L7.55949 24.3246L3.13007 48.1896L33.0326 65.4425L76.1658 66.8108L98.1082 50.3816L98.0069 18.4983L78.9527 3.60157L37.1871 4.32333ZM21.0534 22.336L11.8749 28.5492C11.5057 30.5379 10.9213 34.6776 11.5366 35.3261C12.3057 36.1368 26.3173 44.4213 26.6585 43.4839C26.9996 42.5465 38.1443 39.7028 38.6561 38.2968C39.1679 36.8907 42.837 29.7338 42.7083 28.6254C42.6054 27.7387 37.1111 23.0497 34.3768 20.816L24.5549 21.4873L21.0534 22.336ZM56.7286 54.4285L67.9123 44.1682L82.8158 42.6926L92.9399 48.5005L82.4805 55.3091C78.0823 56.1852 69.1577 57.997 68.6454 58.2351C68.133 58.4733 61.8261 56.9916 58.7367 56.221L56.7286 54.4285ZM70.63 13.3109L66.8742 17.7824L68.8403 21.1519L76.6123 20.2652L77.5071 16.3448L72.9793 14.166L70.63 13.3109ZM38.3208 50.9133L34.948 52.8703L36.6149 55.6001L41.6545 56.3729L41.3972 54.1561L38.3208 50.9133ZM21.652 23.6154L13.7543 29.2332L12.9881 34.2621L25.7607 41.5648L36.7767 37.6127L40.9576 29.0497L33.6945 22.6907L21.652 23.6154ZM36.4628 7.77514L32.9195 10.2009L32.5783 11.1383L34.2871 12.291L39.0694 10.847L43.3819 9.23191L43.5944 7.18616L36.4628 7.77514ZM71.3572 15.6987L69.0947 17.5291L69.8219 19.9169L75.0741 18.6438L75.5858 17.2378L71.3572 15.6987ZM37.6384 52.788L36.8274 53.5544L38.0664 54.5361L40.1163 54.7515L37.6384 52.788ZM58.7786 54.6439L68.5108 45.4476L82.304 44.0986L90.2495 48.5828L82.0526 53.561L68.2174 56.487L60.658 55.3279L59.419 54.3462L58.7786 54.6439Z" stroke="#4053FF"/>
</svg>


