<!-- sample rectangle -->
<svg width="328" height="245" viewBox="0 0 328 245" fill="none" xmlns="http://www.w3.org/2000/svg">
<path fill-rule="evenodd" clip-rule="evenodd" d="M203.642 154.947C198.915 154.021 189.18 151.534 188.056 148.994C186.652 145.818 186.549 143.493 188.594 139.75C190.64 136.007 201.558 129.314 204.057 128.69C206.557 128.066 226.404 132.148 228.34 131.297C230.277 130.446 242.63 131.182 246.571 132.77C250.511 134.357 264.389 124.942 265.938 124.262C267.177 123.717 273.83 117.002 277.001 113.713L288.083 117.852C287.081 122.558 285.112 132.052 285.252 132.369C285.428 132.766 277.36 139.629 273.662 141.727C270.704 143.406 252.267 148.44 243.419 150.747L227.264 149.784L203.642 154.947ZM193.57 148.29C194.139 149.842 202.186 150.835 206.138 151.137L227.453 146.402L241.311 146.03C249.355 144.018 266.152 139.681 268.986 138.43C272.529 136.865 280.623 131.994 280.534 131.752C280.463 131.558 283.688 125.381 285.31 122.316L276.358 120.352C273.082 122.644 266.239 127.335 265.076 127.758C263.624 128.287 250.082 135.14 246.918 134.368C243.754 133.596 233.156 133.88 231.34 134.541C229.524 135.202 212.961 133.809 210.694 134.36C208.426 134.91 197.886 139.847 195.514 142.36C193.141 144.873 192.859 146.35 193.57 148.29Z" fill="#4053FF"/>
<path fill-rule="evenodd" clip-rule="evenodd" d="M96.2945 183.586L98.9358 196.313L92.3263 212.344L79.3459 219.639L59.6396 215.558C57.5795 212.926 53.719 207.517 54.7574 206.933C55.7958 206.35 61.6824 197.673 64.4958 193.407L84.1827 182.341L91.0022 182.298L96.2945 183.586ZM95.2286 196.991L93.0325 186.41L88.6324 185.339L82.9625 185.375L66.5944 194.575C64.2553 198.122 59.3611 205.336 58.4977 205.821C57.6343 206.307 60.8441 210.804 62.5569 212.992L78.9411 216.385L89.7332 210.319L95.2286 196.991Z" fill="#4053FF"/>
<path fill-rule="evenodd" clip-rule="evenodd" d="M132.025 180.337L132.913 188.423C136.66 188.116 144.496 187.261 145.864 186.303C147.233 185.345 152.056 181.055 154.296 179.029L147.781 173.415L137.411 175.294L132.025 180.337ZM134.857 186.74L134.317 180.827L138.52 177.038L146.479 175.483L151.363 179.488C149.616 181.011 145.855 184.239 144.793 184.965C143.73 185.69 137.726 186.45 134.857 186.74Z" fill="#4053FF"/>
<path fill-rule="evenodd" clip-rule="evenodd" d="M126.46 126.218L120.01 137.974L120.089 151.323L128.435 157.025L140.006 156.849L155.012 150.257C158.014 148.938 163.056 147.169 162.199 142.192C161.342 137.215 162.316 132.326 160.829 128.964C159.342 125.603 156.189 122.526 154.073 120.779C151.956 119.033 148.294 118.857 145.217 117.978C142.756 117.275 131.687 123.178 126.46 126.218ZM122.735 137.78L128.449 127.855C132.992 125.241 142.605 120.153 144.716 120.708C147.355 121.403 150.507 121.501 152.306 122.935C154.106 124.369 156.78 126.902 158.016 129.696C159.252 132.49 158.347 136.595 159.019 140.749C159.69 144.903 155.323 146.45 152.721 147.594L139.707 153.311L129.737 153.612L122.625 148.951L122.735 137.78Z" fill="#4053FF"/>
<path fill-rule="evenodd" clip-rule="evenodd" d="M35.662 136.697L29.9109 145.506C30.372 147.696 32.5618 152.418 37.6323 153.781C42.7028 155.143 52.7795 155.503 57.184 155.512C59.901 154.767 65.328 152.114 65.3003 147.459C65.2658 141.641 67.1713 136.765 69.2236 134.518C70.8654 132.719 87.9128 121.671 96.2313 116.371C99.2072 115.064 105.437 111.699 106.547 108.698C107.934 104.948 110.837 102.326 111.281 99.8874C111.726 97.4485 112.356 93.1331 113.91 89.7581C115.464 86.3832 109.589 79.9892 109.091 78.862C108.592 77.7348 101.81 78.4708 101.477 77.7193C101.145 76.9679 96.3758 79.9605 87.8732 83.6957C81.0711 86.6839 73.3929 93.0484 70.404 95.8572L65.0974 102.227L59.9182 113.477L47.5894 118.893L38.584 131.824L35.662 136.697ZM34.7372 140.614L40.0003 133.607L42.6921 129.74L50.8947 119.434L61.5735 114.814L66.4619 105.943L71.2394 100.835C73.8953 98.5601 80.6801 93.3726 86.5718 90.8238C93.9365 87.6377 98.1077 85.1575 98.3553 85.7261C98.6029 86.2947 104.377 85.4859 104.749 86.3388C105.12 87.1916 109.806 91.9215 108.339 94.583C106.873 97.2446 106.146 100.6 105.66 102.499C105.174 104.398 102.6 106.526 101.257 109.471C100.183 111.828 94.7591 114.647 92.1815 115.763C84.9026 120.15 69.9771 129.287 68.5068 130.734C66.6688 132.543 64.8372 136.376 64.6056 140.868C64.4202 144.462 59.7075 146.704 57.3743 147.375C53.6464 147.524 45.133 147.603 40.902 146.731C36.6711 145.858 35.0292 142.289 34.7372 140.614Z" fill="#4053FF"/>
<path fill-rule="evenodd" clip-rule="evenodd" d="M36.0151 165.858L35.9119 171.703L39.98 174.823L45.232 172.515L47.5414 166.594C48.2011 164.371 48.6951 160.287 45.3938 161.738L36.0151 165.858ZM38.1077 170.589L38.1824 166.69L44.4595 163.933C46.669 162.962 46.3346 165.686 45.8912 167.17L44.3408 171.123L40.8256 172.667L38.1077 170.589Z" fill="#4053FF"/>
<path fill-rule="evenodd" clip-rule="evenodd" d="M150.924 45.784L143.827 52.0244L142.585 62.3848C143.661 64.1427 146.737 67.5199 150.435 66.9662C154.133 66.4124 161.73 62.4505 165.066 60.5388L169.97 50.3542C170.655 48.8637 171.118 45.6563 167.492 44.7511C163.866 43.8458 154.936 45.0625 150.924 45.784ZM145.717 52.4405L151.622 47.2616C154.956 46.6585 162.378 45.6386 165.389 46.3835C168.401 47.1284 168.011 49.7858 167.44 51.0213L163.351 59.4642C160.577 61.0523 154.26 64.3444 151.187 64.8081C148.114 65.2719 145.563 62.4786 144.671 61.024L145.717 52.4405Z" fill="#4053FF"/>
<path fill-rule="evenodd" clip-rule="evenodd" d="M211.677 23.6286L202.794 33.8042C202.797 37.1 203.043 44.3387 204.001 46.9268C205.197 50.162 208.882 53.8447 209.549 56.0409C210.216 58.2371 217.397 61.4633 219.439 61.1463C221.481 60.8294 226.99 60.6641 227.861 58.6029C228.731 56.5417 234.527 52.3936 237.265 53.6647C240.004 54.9357 245.284 57.537 247.631 58.9263C249.508 60.0378 254.283 60.4138 256.436 60.4629L259.186 55.4366C259.031 53.2853 258.622 48.6535 258.222 47.3357C257.721 45.6886 257.729 41.4903 254.265 39.2394C250.802 36.9886 244.071 32.4277 242.283 31.4691C240.495 30.5105 233.368 28.167 231.105 27.0522C229.295 26.1603 221.572 25.9352 217.936 25.9342L211.677 23.6286ZM206.684 35.168L214.322 26.6563L219.637 28.526C222.733 28.501 229.309 28.633 230.844 29.3606C232.764 30.2701 238.816 32.1651 240.332 32.9483C241.848 33.7314 247.548 37.4703 250.482 39.3145C253.416 41.1587 253.379 44.6445 253.793 46.0086C254.125 47.0998 254.44 50.9426 254.557 52.7276L252.179 56.9205C250.346 56.895 246.281 56.6168 244.69 55.7073C242.702 54.5705 238.223 52.4483 235.9 51.4124C233.577 50.3766 228.611 53.8619 227.855 55.5795C227.099 57.2971 222.406 57.4735 220.665 57.7511C218.923 58.0288 212.831 55.4013 212.278 53.5826C211.726 51.7639 208.614 48.7325 207.618 46.0549C206.821 43.9128 206.663 37.9045 206.684 35.168Z" fill="#4053FF"/>
<path fill-rule="evenodd" clip-rule="evenodd" d="M249.591 110.846L239.699 106.715L234.743 95.5085L238.87 93.6956L250.802 97.376L255.593 108.209L249.591 110.846ZM241.251 105.159L248.324 108.279L252.561 106.418L249.041 98.4593L240.523 95.6461L237.61 96.9257L241.251 105.159Z" fill="#4053FF"/>
<path fill-rule="evenodd" clip-rule="evenodd" d="M11.4516 180.217L1.20914 157.058L53.217 77.1078L89.6063 61.1219L158.988 12.3517L253.714 0.628012L317.981 59.8341L327.15 104.879L284.231 167.899L212.568 165.922L154.121 193.828L63.2182 243.577L23.6214 223.944L11.4516 180.217ZM12.4533 154.271L21.958 175.763L33.2511 216.339L69.9955 234.558L154.35 188.393L208.586 162.497L275.087 164.332L314.913 105.852L306.405 64.0517L246.768 9.11035L158.866 19.9893L94.4823 65.2463L60.7145 80.0805L12.4533 154.271Z" fill="#010101"/>
<path fill-rule="evenodd" clip-rule="evenodd" d="M203.642 154.947C198.915 154.021 189.18 151.534 188.056 148.994C186.652 145.818 186.549 143.493 188.594 139.75C190.64 136.007 201.558 129.314 204.057 128.69C206.557 128.066 226.404 132.148 228.34 131.297C230.277 130.446 242.63 131.182 246.571 132.77C250.511 134.357 264.389 124.942 265.938 124.262C267.177 123.717 273.83 117.002 277.001 113.713L288.083 117.852C287.081 122.558 285.112 132.052 285.252 132.369C285.428 132.766 277.36 139.629 273.662 141.727C270.704 143.406 252.267 148.44 243.419 150.747L227.264 149.784L203.642 154.947ZM193.57 148.29C194.139 149.842 202.186 150.835 206.138 151.137L227.453 146.402L241.311 146.03C249.355 144.018 266.152 139.681 268.986 138.43C272.529 136.865 280.623 131.994 280.534 131.752C280.463 131.558 283.688 125.381 285.31 122.316L276.358 120.352C273.082 122.644 266.239 127.335 265.076 127.758C263.624 128.287 250.082 135.14 246.918 134.368C243.754 133.596 233.156 133.88 231.34 134.541C229.524 135.202 212.961 133.809 210.694 134.36C208.426 134.91 197.886 139.847 195.514 142.36C193.141 144.873 192.859 146.35 193.57 148.29Z" stroke="#4053FF"/>
<path fill-rule="evenodd" clip-rule="evenodd" d="M96.2945 183.586L98.9358 196.313L92.3263 212.344L79.3459 219.639L59.6396 215.558C57.5795 212.926 53.719 207.517 54.7574 206.933C55.7958 206.35 61.6824 197.673 64.4958 193.407L84.1827 182.341L91.0022 182.298L96.2945 183.586ZM95.2286 196.991L93.0325 186.41L88.6324 185.339L82.9625 185.375L66.5944 194.575C64.2553 198.122 59.3611 205.336 58.4977 205.821C57.6343 206.307 60.8441 210.804 62.5569 212.992L78.9411 216.385L89.7332 210.319L95.2286 196.991Z" stroke="#4053FF"/>
<path fill-rule="evenodd" clip-rule="evenodd" d="M132.025 180.337L132.913 188.423C136.66 188.116 144.496 187.261 145.864 186.303C147.233 185.345 152.056 181.055 154.296 179.029L147.781 173.415L137.411 175.294L132.025 180.337ZM134.857 186.74L134.317 180.827L138.52 177.038L146.479 175.483L151.363 179.488C149.616 181.011 145.855 184.239 144.793 184.965C143.73 185.69 137.726 186.45 134.857 186.74Z" stroke="#4053FF"/>
<path fill-rule="evenodd" clip-rule="evenodd" d="M126.46 126.218L120.01 137.974L120.089 151.323L128.435 157.025L140.006 156.849L155.012 150.257C158.014 148.938 163.056 147.169 162.199 142.192C161.342 137.215 162.316 132.326 160.829 128.964C159.342 125.603 156.189 122.526 154.073 120.779C151.956 119.033 148.294 118.857 145.217 117.978C142.756 117.275 131.687 123.178 126.46 126.218ZM122.735 137.78L128.449 127.855C132.992 125.241 142.605 120.153 144.716 120.708C147.355 121.403 150.507 121.501 152.306 122.935C154.106 124.369 156.78 126.902 158.016 129.696C159.252 132.49 158.347 136.595 159.019 140.749C159.69 144.903 155.323 146.45 152.721 147.594L139.707 153.311L129.737 153.612L122.625 148.951L122.735 137.78Z" stroke="#4053FF"/>
<path fill-rule="evenodd" clip-rule="evenodd" d="M35.662 136.697L29.9109 145.506C30.372 147.696 32.5618 152.418 37.6323 153.781C42.7028 155.143 52.7795 155.503 57.184 155.512C59.901 154.767 65.328 152.114 65.3003 147.459C65.2658 141.641 67.1713 136.765 69.2236 134.518C70.8654 132.719 87.9128 121.671 96.2313 116.371C99.2072 115.064 105.437 111.699 106.547 108.698C107.934 104.948 110.837 102.326 111.281 99.8874C111.726 97.4485 112.356 93.1331 113.91 89.7581C115.464 86.3832 109.589 79.9892 109.091 78.862C108.592 77.7348 101.81 78.4708 101.477 77.7193C101.145 76.9679 96.3758 79.9605 87.8732 83.6957C81.0711 86.6839 73.3929 93.0484 70.404 95.8572L65.0974 102.227L59.9182 113.477L47.5894 118.893L38.584 131.824L35.662 136.697ZM34.7372 140.614L40.0003 133.607L42.6921 129.74L50.8947 119.434L61.5735 114.814L66.4619 105.943L71.2394 100.835C73.8953 98.5601 80.6801 93.3726 86.5718 90.8238C93.9365 87.6377 98.1077 85.1575 98.3553 85.7261C98.6029 86.2947 104.377 85.4859 104.749 86.3388C105.12 87.1916 109.806 91.9215 108.339 94.583C106.873 97.2446 106.146 100.6 105.66 102.499C105.174 104.398 102.6 106.526 101.257 109.471C100.183 111.828 94.7591 114.647 92.1815 115.763C84.9026 120.15 69.9771 129.287 68.5068 130.734C66.6688 132.543 64.8372 136.376 64.6056 140.868C64.4202 144.462 59.7075 146.704 57.3743 147.375C53.6464 147.524 45.133 147.603 40.902 146.731C36.6711 145.858 35.0292 142.289 34.7372 140.614Z" stroke="#4053FF"/>
<path fill-rule="evenodd" clip-rule="evenodd" d="M36.0151 165.858L35.9119 171.703L39.98 174.823L45.232 172.515L47.5414 166.594C48.2011 164.371 48.6951 160.287 45.3938 161.738L36.0151 165.858ZM38.1077 170.589L38.1824 166.69L44.4595 163.933C46.669 162.962 46.3346 165.686 45.8912 167.17L44.3408 171.123L40.8256 172.667L38.1077 170.589Z" stroke="#4053FF"/>
<path fill-rule="evenodd" clip-rule="evenodd" d="M150.924 45.784L143.827 52.0244L142.585 62.3848C143.661 64.1427 146.737 67.5199 150.435 66.9662C154.133 66.4124 161.73 62.4505 165.066 60.5388L169.97 50.3542C170.655 48.8637 171.118 45.6563 167.492 44.7511C163.866 43.8458 154.936 45.0625 150.924 45.784ZM145.717 52.4405L151.622 47.2616C154.956 46.6585 162.378 45.6386 165.389 46.3835C168.401 47.1284 168.011 49.7858 167.44 51.0213L163.351 59.4642C160.577 61.0523 154.26 64.3444 151.187 64.8081C148.114 65.2719 145.563 62.4786 144.671 61.024L145.717 52.4405Z" stroke="#4053FF"/>
<path fill-rule="evenodd" clip-rule="evenodd" d="M211.677 23.6286L202.794 33.8042C202.797 37.1 203.043 44.3387 204.001 46.9268C205.197 50.162 208.882 53.8447 209.549 56.0409C210.216 58.2371 217.397 61.4633 219.439 61.1463C221.481 60.8294 226.99 60.6641 227.861 58.6029C228.731 56.5417 234.527 52.3936 237.265 53.6647C240.004 54.9357 245.284 57.537 247.631 58.9263C249.508 60.0378 254.283 60.4138 256.436 60.4629L259.186 55.4366C259.031 53.2853 258.622 48.6535 258.222 47.3357C257.721 45.6886 257.729 41.4903 254.265 39.2394C250.802 36.9886 244.071 32.4277 242.283 31.4691C240.495 30.5105 233.368 28.167 231.105 27.0522C229.295 26.1603 221.572 25.9352 217.936 25.9342L211.677 23.6286ZM206.684 35.168L214.322 26.6563L219.637 28.526C222.733 28.501 229.309 28.633 230.844 29.3606C232.764 30.2701 238.816 32.1651 240.332 32.9483C241.848 33.7314 247.548 37.4703 250.482 39.3145C253.416 41.1587 253.379 44.6445 253.793 46.0086C254.125 47.0998 254.44 50.9426 254.557 52.7276L252.179 56.9205C250.346 56.895 246.281 56.6168 244.69 55.7073C242.702 54.5705 238.223 52.4483 235.9 51.4124C233.577 50.3766 228.611 53.8619 227.855 55.5795C227.099 57.2971 222.406 57.4735 220.665 57.7511C218.923 58.0288 212.831 55.4013 212.278 53.5826C211.726 51.7639 208.614 48.7325 207.618 46.0549C206.821 43.9128 206.663 37.9045 206.684 35.168Z" stroke="#4053FF"/>
<path fill-rule="evenodd" clip-rule="evenodd" d="M249.591 110.846L239.699 106.715L234.743 95.5085L238.87 93.6956L250.802 97.376L255.593 108.209L249.591 110.846ZM241.251 105.159L248.324 108.279L252.561 106.418L249.041 98.4593L240.523 95.6461L237.61 96.9257L241.251 105.159Z" stroke="#4053FF"/>
<path fill-rule="evenodd" clip-rule="evenodd" d="M11.4516 180.217L1.20914 157.058L53.217 77.1078L89.6063 61.1219L158.988 12.3517L253.714 0.628012L317.981 59.8341L327.15 104.879L284.231 167.899L212.568 165.922L154.121 193.828L63.2182 243.577L23.6214 223.944L11.4516 180.217ZM12.4533 154.271L21.958 175.763L33.2511 216.339L69.9955 234.558L154.35 188.393L208.586 162.497L275.087 164.332L314.913 105.852L306.405 64.0517L246.768 9.11035L158.866 19.9893L94.4823 65.2463L60.7145 80.0805L12.4533 154.271Z" stroke="#4053FF"/>
</svg>
