<!-- sample rectangle -->
<svg width="73" height="66" viewBox="0 0 73 66" fill="none" xmlns="http://www.w3.org/2000/svg">
<path fill-rule="evenodd" clip-rule="evenodd" d="M10.7005 39.5177L7.69666 47.2375C8.32351 48.6061 9.74205 51.3761 10.4013 51.5068C11.2255 51.6702 23.4511 50.6993 23.259 49.9824C23.0669 49.2656 28.7352 42.7527 28.4471 41.6774C28.159 40.6021 27.3504 34.6722 26.7943 34.0529C26.3494 33.5575 20.9361 33.0616 18.285 32.8755L12.5006 37.4988L10.7005 39.5177ZM9.15283 46.8473L11.6207 40.0395L18.6692 34.3092L25.8942 35.0624L26.9909 42.0676L21.8787 49.1998L10.8413 50.2364L9.15283 46.8473Z" fill="#4053FF"/>
<path fill-rule="evenodd" clip-rule="evenodd" d="M33.6644 49.4993L32.4204 52.1375L34.6248 53.0835L38.0731 51.3912L36.9609 50.1526L33.6644 49.4993ZM33.8766 51.7474L34.0485 50.933L36.4249 51.0645L35.0647 51.8131L33.8766 51.7474Z" fill="#4053FF"/>
<path fill-rule="evenodd" clip-rule="evenodd" d="M46.5577 43.7395L49.0612 32.6964L57.6418 25.4032L66.399 24.5934L62.8591 33.225C60.5163 35.6455 55.7771 40.5777 55.5627 40.9425C55.3483 41.3073 50.8116 43.1119 48.57 43.9687L46.5577 43.7395ZM49.9814 33.2182L47.9178 42.9909L48.1858 42.535L49.374 42.6008L54.5465 40.0623L61.8429 32.3449L64.7708 25.7979L57.93 26.4785L49.9814 33.2182Z" fill="#4053FF"/>
<path fill-rule="evenodd" clip-rule="evenodd" d="M37.4742 12.7516L37.0744 17.0845L39.7389 18.2913L44.1632 14.4167L43.0308 11.6469L39.2944 12.2639L37.4742 12.7516ZM38.3385 15.9775L38.9504 13.8927L42.2268 13.0148L42.5149 14.0901L39.8148 17.1185L38.3385 15.9775Z" fill="#4053FF"/>
<path fill-rule="evenodd" clip-rule="evenodd" d="M18.5641 19.3552L19.9644 21.6691C19.4284 22.581 18.3756 24.4766 18.4525 24.7633C18.5485 25.1218 15.4843 28.2478 15.1203 28.3453L12.572 29.0281C12.2332 28.7347 11.5902 27.9851 11.7277 27.3335C11.8997 26.5192 13.0476 23.5224 13.4117 23.4249C13.7029 23.3469 15.6398 21.5473 16.5719 20.6573L18.5641 19.3552ZM12.8199 27.0409L13.9678 24.0442L18.1241 20.6256L18.8723 21.9617L16.9002 24.7951L14.5641 27.726L13.0119 27.7578L12.8199 27.0409Z" fill="#4053FF"/>
<path fill-rule="evenodd" clip-rule="evenodd" d="M37.8693 1.12097L10.8991 19.8724L1.02774 47.1036L10.0263 64.6687L37.1218 62.4026L65.3763 44.0753L72.2237 23.0326L57.2441 2.07607L37.8693 1.12097ZM3.21199 46.5183L12.9315 21.6328L38.4456 3.27152L56.6321 4.16084L70.4034 23.5204L63.9 42.9343L36.6416 60.6104L10.7342 62.9424L3.21199 46.5183Z" fill="black"/>
<path d="M15.1203 28.3453C15.4843 28.2478 18.5485 25.1218 18.4525 24.7633C18.3756 24.4766 19.4284 22.581 19.9644 21.6691L18.5641 19.3552L16.5719 20.6573C15.6398 21.5473 13.7029 23.3469 13.4117 23.4249C13.0476 23.5224 11.8997 26.5192 11.7277 27.3335C11.5902 27.9851 12.2332 28.7347 12.572 29.0281M15.1203 28.3453C14.829 28.4234 13.3001 28.833 12.572 29.0281M15.1203 28.3453L12.572 29.0281M37.8693 1.12097L10.8991 19.8724L1.02774 47.1036L10.0263 64.6687L37.1218 62.4026L65.3763 44.0753L72.2237 23.0326L57.2441 2.07607L37.8693 1.12097ZM12.9315 21.6328L3.21199 46.5183L10.7342 62.9424L36.6416 60.6104L63.9 42.9343L70.4034 23.5204L56.6321 4.16084L38.4456 3.27152L12.9315 21.6328ZM10.7005 39.5177L7.69666 47.2375C8.32351 48.6061 9.74205 51.3761 10.4013 51.5068C11.2255 51.6701 23.4511 50.6993 23.259 49.9824C23.0669 49.2656 28.7352 42.7527 28.4471 41.6774C28.159 40.6021 27.3504 34.6722 26.7943 34.0529C26.3494 33.5575 20.9361 33.0616 18.285 32.8755L12.5006 37.4988L10.7005 39.5177ZM46.5577 43.7395L49.0612 32.6964L57.6418 25.4032L66.399 24.5934L62.8591 33.225C60.5163 35.6455 55.7771 40.5777 55.5627 40.9425C55.3483 41.3073 50.8116 43.1119 48.57 43.9687L46.5577 43.7395ZM37.4742 12.7516L37.0744 17.0845L39.7389 18.2913L44.1632 14.4167L43.0308 11.6469L39.2944 12.2639L37.4742 12.7516ZM33.6644 49.4993L32.4204 52.1375L34.6248 53.0835L38.0731 51.3912L36.9609 50.1526L33.6644 49.4993ZM11.6207 40.0395L9.15283 46.8473L10.8413 50.2364L21.8787 49.1998L26.9909 42.0676L25.8942 35.0624L18.6692 34.3092L11.6207 40.0395ZM13.9678 24.0442L12.8199 27.0409L13.0119 27.7578L14.5641 27.726L16.9002 24.7951L18.8723 21.9617L18.1241 20.6256L13.9678 24.0442ZM38.9504 13.8927L38.3385 15.9775L39.8148 17.1185L42.5149 14.0901L42.2268 13.0148L38.9504 13.8927ZM34.0485 50.933L33.8766 51.7474L35.0647 51.8131L36.4249 51.0645L34.0485 50.933ZM47.9178 42.9909L49.9814 33.2182L57.93 26.4785L64.7708 25.7979L61.8429 32.3449L54.5465 40.0623L49.374 42.6008L48.1858 42.535L47.9178 42.9909Z" stroke="#4053FF"/>
</svg>








