<!-- sample rectangle -->
<svg width="94" height="116" viewBox="0 0 94 116" fill="none" xmlns="http://www.w3.org/2000/svg">
<path fill-rule="evenodd" clip-rule="evenodd" d="M41.3869 101.863L33.8472 105.394L29.1791 104.479L24.5573 95.8929L27.4915 84.8369L35.7179 83.4999L41.8472 89.2092L42.5823 94.5846L41.3869 101.863ZM30.1363 102.997L33.4796 102.706L39.5512 99.2773L40.4113 91.4321L35.0959 85.5484L28.8325 87.1032L26.7677 96.2706L30.1363 102.997Z" fill="#4053FF"/>
<path fill-rule="evenodd" clip-rule="evenodd" d="M31.1516 73.1997L27.5448 72.27L28.9321 66.8655L32.9297 66.6474L35.3481 69.9597L33.7527 72.4296L31.1516 73.1997ZM30.4811 72.0665L32.2684 71.4708L34.1273 70.2213L32.4511 67.3884L29.6904 68.4055L29.332 71.6743L30.4811 72.0665Z" fill="#4053FF"/>
<path fill-rule="evenodd" clip-rule="evenodd" d="M13.9335 79.2296L7.20538 71.7334L8.82172 54.5756L17.7256 49.4758L25.2029 52.5555L26.6964 59.4708L18.8306 68.3914L17.6028 73.5489L18.0906 78.7645L13.9335 79.2296ZM14.3242 78.0819L16.7658 77.5587L16.2063 72.9969L17.5936 67.5924L25.4594 58.6718L23.9104 53.4708L17.9892 50.6962L9.49221 55.7087L8.42616 71.4718L14.3242 78.0819Z" fill="#4053FF"/>
<path fill-rule="evenodd" clip-rule="evenodd" d="M27.1383 34.9037L20.6436 37.3592L19.8136 36.473L23.6748 32.6665L31.8758 24.3125L36.974 21.3049L38.1716 24.8788L35.3 29.3245L31.9012 31.3296L27.1383 34.9037ZM27.4412 33.3492L21.2817 36.3713L31.2539 26.361L35.5382 23.5278L37.1104 24.8934L34.5578 28.8451L31.4781 30.3562L27.4412 33.3492Z" fill="#4053FF"/>
<path fill-rule="evenodd" clip-rule="evenodd" d="M40.3772 41.0049L52.8578 45.5662L66.4136 40.321L78.5082 30.2815L73.7986 21.2888C69.6407 18.1364 61.0489 11.9332 59.9447 12.3401C58.5644 12.8486 52.9714 15.5366 51.5356 17.7594L45.6327 26.8979L43.7668 33.0434L40.3125 36.7627L40.3772 41.0049ZM51.9399 44.2733L42.7147 39.0145L41.8685 37.0677L45.0038 33.8424L46.8697 27.6969L52.7725 18.5584L60.703 13.88L73.0009 22.5238L76.7765 29.163L65.5674 38.3743L51.9399 44.2733Z" fill="#4053FF"/>
<path fill-rule="evenodd" clip-rule="evenodd" d="M68.6952 77.4984L59.8468 80.8838C57.2612 79.097 52.0196 75.1979 51.7384 73.8962C51.4573 72.5944 55.5134 64.4333 57.5766 60.5155C61.1827 57.8276 68.7524 52.3328 70.1822 51.8562C71.9694 51.2605 78.9751 50.1851 79.4698 50.5047C79.9646 50.8243 82.7738 52.9888 83.3726 54.7758C83.9714 56.5627 83.613 59.8316 83.1506 61.6331C82.6881 63.4346 78.9471 69.769 78.628 70.263C78.3728 70.6582 71.8998 75.2513 68.6952 77.4984ZM54.1083 74.0268L60.5405 78.1816L61.2827 78.661L68.1843 76.1183L76.8963 69.1444L81.6824 61.7348L81.7449 55.1245L78.6722 51.7396L71.0284 53.8029L59.0771 62.5348L54.1083 74.0268Z" fill="#4053FF"/>
<path fill-rule="evenodd" clip-rule="evenodd" d="M15.1447 110.465L42.818 115.389L59.1554 94.4386L75.3748 81.813L93.3491 66.4705L87.5856 15.1428L59.2003 1.00817L29.721 22.2205L1.70986 43.3311L1.0206 67.7384L2.80304 82.8912L15.1447 110.465ZM41.796 112.629L16.5805 108.242L4.02383 82.6296C2.89104 70.8134 1.08973 46.5709 2.94682 44.1301C5.26819 41.0791 56.2963 3.3328 59.2327 3.12928C61.5818 2.96646 78.2518 11.6807 86.2932 16.0582L91.4578 65.5989L74.1378 81.014L57.1762 93.1602L41.796 112.629Z" fill="black"/>
<path d="M51.5356 17.7594C52.9714 15.5366 58.5644 12.8486 59.9447 12.3401C61.0489 11.9332 69.6407 18.1364 73.7986 21.2888L78.5082 30.2815L66.4136 40.321L52.8578 45.5662L40.3772 41.0049L40.3125 36.7627L43.7668 33.0434L45.6327 26.8979M51.5356 17.7594C50.3869 19.5377 47.1217 24.5927 45.6327 26.8979M51.5356 17.7594L45.6327 26.8979M16.5805 108.242L41.796 112.629L57.1762 93.1602L74.1378 81.014L91.4578 65.5989L86.2932 16.0582C78.2518 11.6807 61.5818 2.96646 59.2327 3.12928C56.2963 3.3328 5.26819 41.0791 2.94682 44.1301C1.08973 46.5709 2.89104 70.8134 4.02383 82.6296L16.5805 108.242ZM41.3869 101.863L33.8472 105.394L29.1791 104.479L24.5573 95.8929L27.4915 84.8369L35.7179 83.4999L41.8472 89.2092L42.5823 94.5846L41.3869 101.863ZM13.9335 79.2296L7.20538 71.7334L8.82172 54.5756L17.7256 49.4758L25.2029 52.5555L26.6964 59.4708L18.8306 68.3914L17.6028 73.5489L18.0906 78.7645L13.9335 79.2296ZM33.4796 102.706L30.1363 102.997L26.7677 96.2706L28.8325 87.1032L35.0959 85.5484L40.4113 91.4321L39.5512 99.2773L33.4796 102.706ZM16.7658 77.5587L14.3242 78.0819L8.42616 71.4718L9.49221 55.7087L17.9892 50.6962L23.9104 53.4708L25.4594 58.6718L17.5936 67.5924L16.2063 72.9969L16.7658 77.5587ZM42.7147 39.0145L51.9399 44.2733L65.5674 38.3743L76.7765 29.163L73.0009 22.5238L60.703 13.88L52.7725 18.5584L46.8697 27.6969L45.0038 33.8424L41.8685 37.0677L42.7147 39.0145ZM68.6952 77.4984L59.8468 80.8838C57.2612 79.097 52.0196 75.1979 51.7384 73.8962C51.4573 72.5944 55.5134 64.4333 57.5766 60.5155C61.1827 57.8276 68.7524 52.3328 70.1822 51.8562C71.9694 51.2605 78.9751 50.1851 79.4698 50.5047C79.9646 50.8243 82.7738 52.9888 83.3726 54.7758C83.9714 56.5627 83.613 59.8316 83.1506 61.6331C82.6881 63.4346 78.9471 69.769 78.628 70.263C78.3728 70.6582 71.8998 75.2513 68.6952 77.4984ZM60.5405 78.1816L54.1083 74.0268L59.0771 62.5348L71.0284 53.8029L78.6722 51.7396L81.7449 55.1245L81.6824 61.7348L76.8963 69.1444L68.1843 76.1183L61.2827 78.661L60.5405 78.1816ZM31.1516 73.1997L27.5448 72.27L28.9321 66.8655L32.9297 66.6474L35.3481 69.9597L33.7527 72.4296L31.1516 73.1997ZM32.2684 71.4708L30.4811 72.0665L29.332 71.6743L29.6904 68.4055L32.4511 67.3884L34.1273 70.2213L32.2684 71.4708ZM27.1383 34.9037L20.6436 37.3592L19.8136 36.473L23.6748 32.6665L31.8758 24.3125L36.974 21.3049L38.1716 24.8788L35.3 29.3245L31.9012 31.3296L27.1383 34.9037ZM21.2817 36.3713L27.4412 33.3492L31.4781 30.3562L34.5578 28.8451L37.1104 24.8934L35.5382 23.5278L31.2539 26.361L21.2817 36.3713ZM15.1447 110.465L42.818 115.389L59.1554 94.4386L75.3748 81.813L93.3491 66.4705L87.5856 15.1428L59.2003 1.00817L29.721 22.2205L1.70986 43.3311L1.0206 67.7384L2.80304 82.8912L15.1447 110.465Z" stroke="#4053FF"/>
</svg>







