<svg width="1053" height="1099" viewBox="0 0 1053 1099" fill="none" xmlns="http://www.w3.org/2000/svg">
<path d="M779.719 403.005C777.386 403.297 766.798 412.263 768.081 414.83C768.894 416.454 770.697 417.526 772.437 418.56C775.442 420.346 778.257 422.02 775.449 426.233C775.382 426.332 775.316 426.431 775.25 426.529C775.196 426.609 775.143 426.688 775.089 426.767C773.943 428.463 772.962 429.915 772.962 432.145C772.962 433.61 775.105 434.538 777.05 435.38C778.138 435.85 779.164 436.294 779.719 436.791C783.694 440.347 788.333 433.712 789.057 430.456C789.964 426.374 798.398 424.148 803.02 422.928C803.656 422.76 804.22 422.611 804.683 422.479C806.273 422.024 806.529 419.194 805.433 417.786C803.869 415.775 802.21 415.172 800.106 414.406C799.595 414.221 799.057 414.025 798.489 413.798C797.99 413.598 797.753 413.292 797.533 413.008C797.243 412.633 796.982 412.296 796.189 412.296C796.088 412.296 795.973 412.302 795.846 412.31C795.752 412.316 795.652 412.324 795.548 412.332C794.805 412.39 793.865 412.464 793.421 412.108C792.508 411.378 791.247 411.192 789.972 411.004C788.889 410.844 787.795 410.683 786.898 410.184C785.708 409.523 784.912 408.162 784.116 406.801C783.006 404.903 781.897 403.005 779.719 403.005Z" fill="#FF9C40"/>
<path fill-rule="evenodd" clip-rule="evenodd" d="M1052 549.5C1052 852.428 816.726 1098 526.5 1098C236.274 1098 1 852.428 1 549.5C1 246.572 236.274 1 526.5 1C816.726 1 1052 246.572 1052 549.5ZM779.719 403.005C777.386 403.297 766.798 412.263 768.081 414.83C768.894 416.454 770.697 417.526 772.437 418.56C775.442 420.346 778.257 422.02 775.449 426.233C775.382 426.332 775.316 426.431 775.25 426.529L775.089 426.767C773.943 428.463 772.962 429.915 772.962 432.145C772.962 433.61 775.105 434.538 777.05 435.38C778.138 435.85 779.164 436.294 779.719 436.791C783.694 440.347 788.333 433.712 789.057 430.456C789.964 426.374 798.398 424.148 803.02 422.928C803.656 422.76 804.22 422.611 804.683 422.479C806.273 422.024 806.529 419.194 805.433 417.786C803.869 415.775 802.21 415.172 800.106 414.406C799.595 414.221 799.057 414.025 798.489 413.798C797.99 413.598 797.753 413.292 797.533 413.008C797.243 412.633 796.982 412.296 796.189 412.296C796.088 412.296 795.973 412.302 795.846 412.31C795.752 412.316 795.652 412.324 795.548 412.332C794.805 412.39 793.865 412.464 793.421 412.108C792.508 411.378 791.247 411.192 789.972 411.004C788.889 410.844 787.795 410.683 786.898 410.184C785.708 409.523 784.912 408.162 784.116 406.801C783.006 404.903 781.897 403.005 779.719 403.005ZM813.17 390.581C814.699 389.481 816.038 388.517 816.038 387.801C816.937 387.801 817.442 388.257 817.928 388.696C818.355 389.081 818.767 389.452 819.417 389.491C819.697 389.507 820.032 389.513 820.4 389.52C821.999 389.551 824.212 389.594 825.142 390.523C825.654 391.035 823.427 399.464 822.608 400.283C820.655 402.236 811.007 398.443 809.469 396.905C807.34 394.775 810.535 392.476 813.17 390.581ZM772.827 450.078C772.827 451.224 772.257 452.127 771.698 453.013C771.012 454.098 770.342 455.159 770.757 456.61C771.084 457.754 772.948 457.902 774.662 458.038C775.948 458.14 777.148 458.236 777.551 458.739C777.912 459.19 781.6 453.835 780.059 452.295C779.769 452.005 779.255 451.827 778.703 451.637C778.06 451.415 777.365 451.175 776.91 450.72C776.532 450.342 775.528 450.352 774.608 450.362C773.757 450.37 772.977 450.378 772.827 450.078ZM778.212 471.875C778.804 471.255 779.42 470.608 779.42 469.714C780.436 470.222 780.784 476.99 779.135 476.99C778.149 476.99 777.142 474.458 777.142 473.7C777.142 472.998 777.667 472.448 778.212 471.875Z" fill="#161616"/>
<path d="M809.469 396.905C811.007 398.443 820.655 402.236 822.608 400.283C823.427 399.464 825.654 391.035 825.142 390.523C824.212 389.594 821.999 389.551 820.4 389.52C820.032 389.513 819.697 389.507 819.417 389.491C818.767 389.452 818.355 389.081 817.928 388.696C817.442 388.257 816.937 387.801 816.038 387.801C816.038 388.517 814.699 389.481 813.17 390.581C810.535 392.476 807.34 394.775 809.469 396.905Z" fill="#FF9C40"/>
<path d="M777.551 458.739C777.912 459.19 781.6 453.835 780.059 452.295C779.769 452.005 779.255 451.827 778.703 451.637C778.06 451.415 777.365 451.175 776.91 450.72C776.532 450.342 775.528 450.352 774.608 450.362C773.757 450.37 772.977 450.378 772.827 450.078C772.827 451.224 772.257 452.127 771.698 453.013C771.012 454.098 770.342 455.159 770.757 456.61C771.084 457.754 772.948 457.902 774.662 458.038C775.948 458.14 777.148 458.236 777.551 458.739Z" fill="#FF9C40"/>
<path d="M777.142 473.7C777.142 474.458 778.149 476.99 779.135 476.99C780.784 476.99 780.436 470.222 779.42 469.714C779.42 470.608 778.804 471.255 778.212 471.875C777.667 472.448 777.142 472.998 777.142 473.7Z" fill="#161616"/>
<path d="M469 4.24584C462.837 4.24584 456.336 11.3528 450.745 13.8315C445.211 16.285 442.163 19.0884 442.53 25.6697C443.024 34.5458 459.35 33.8654 465.534 33.8654C473.648 33.8654 478.913 33.9692 486.073 37.1437C494.456 40.8601 484.102 47.896 481.144 50.2569C473.463 56.3869 486.183 59.6024 490.181 62.0951C493.697 64.2871 490.621 66.6483 495.932 66.6483C499.093 66.6483 503.709 67.5714 506.613 66.2841C515.52 62.3352 514.682 66.021 522.314 68.1964C528.654 70.0033 537.815 68.2875 544.406 68.2875C554.945 68.2875 555.922 69.1704 560.472 60.0917C568.196 44.6822 582.385 46.9786 597.809 46.9786C604.868 46.9786 608.99 43.7003 615.883 43.7003C629.289 43.7003 642.874 39.6868 656.141 40.422C659.529 40.6098 670.498 46.3064 672.938 48.2535C676.399 51.0161 683.317 52.5484 687.919 53.5678L688.182 53.6262C693.852 54.8831 699.019 60.0917 704.614 60.0917H723.51C731.437 60.0917 735.475 66.0814 742.863 66.6483C749.53 67.1599 754.932 69.9891 760.573 73.2049C765.504 76.016 770.208 77.7759 775.27 80.581C779.499 82.9245 790.38 85.5923 792.889 89.5963C795.526 93.806 802.997 93.5536 806.034 98.7027C808.591 103.038 817.441 107.897 821.279 111.725C824.754 115.192 829.044 119.397 832.781 122.379C837.195 125.902 837.949 130.134 843.461 132.578C849.221 135.132 854.941 134.546 858.615 140.41C860.133 142.832 864.792 144.764 867.287 146.147C871.061 148.238 867.943 151.424 870.574 153.523C873.11 155.547 871.798 157.713 873.404 159.715C875.302 162.083 878.725 164.195 881.254 165.817C888.753 170.625 886.175 175.146 891.478 181.024C893.318 183.063 892.917 186.085 894.399 188.673C896.085 191.615 899.021 193.293 900.607 196.141C905.049 204.116 917.029 208.801 919.138 218.269C920.44 224.114 931.525 246.503 924.798 251.872C914.799 259.851 934.426 283.814 940.043 288.297C949.042 295.479 971.628 276.503 971.628 290.391C971.628 296.447 969.676 302.662 962.591 304.233C955.295 305.85 949.792 312.52 942.051 312.52C935.984 312.52 929.266 311.742 924.342 316.162C918.837 321.104 917.404 319.086 917.404 328.092C917.404 332.449 929.554 333.829 933.014 333.829C938.586 333.829 945.633 330.314 949.902 326.908C952.796 324.598 958.253 320.716 961.769 320.716C968.988 320.716 969.614 327.284 975.645 329.002C979.499 330.101 982.445 339.088 981.396 342.753C980.069 347.386 977.763 356.543 980.209 361.694C983.846 369.353 988.06 372.674 988.06 381.364C988.06 384.412 986.098 397.682 983.952 399.395C982.786 400.325 978.201 409.879 978.201 411.688C978.201 415.317 983.101 426.067 981.122 428.535C974.138 437.243 955.571 430.891 948.624 439.554C945.136 443.902 940.368 442.601 938.856 449.388C937.426 455.808 940.791 461.319 946.981 461.682C949.571 461.834 953.139 464.231 956.018 464.869C959.367 465.612 962.994 464.299 966.333 465.324L966.764 465.456C973.662 467.57 978.201 468.961 978.201 477.254C978.201 484.023 979.645 491.283 984.043 496.924C989.754 504.248 992.468 512.366 996.641 520.691C998.232 523.865 1000.54 526.297 1001.3 529.706C1001.6 531.087 1002.45 537.51 1003.21 538.357C1006.91 542.454 1018.53 540.361 1023.39 540.361C1029.54 540.361 1035.1 542 1041.46 542C1046.32 542 1048.26 534.241 1051.75 532.5M271.5 69.7914C272.863 76.6069 281.227 84.6949 283 91.7875C285.028 99.9004 290.59 100.045 298.255 101.102C307.342 102.355 316.142 101.943 325.245 102.422C329.964 102.67 327.886 115.122 327.886 118.264V137.333C327.886 144.758 314.709 146.178 313.437 153.175C310.362 170.09 334.492 167.703 343.434 176.645C344.889 178.099 346.368 185.535 346.368 187.573C346.368 195.954 355.317 185.678 357.663 183.759C363.535 178.954 375.938 182.651 375.412 173.711C375.374 173.073 370.913 167.239 370.718 167.183C369.637 166.875 359.984 162.183 365.584 160.583C373.116 158.43 380.133 157.896 385.68 163.443C388.261 166.024 387.293 171.087 387.293 174.371C387.293 179.588 392.617 177.726 395.214 180.972C396.644 182.759 399.115 186.08 400.788 187.939C404.945 192.558 400.212 191.339 400.495 196.154C400.583 197.645 407.602 199.71 403.795 202.755C402.614 203.7 396.853 209.229 396.608 210.089C392.741 223.623 408.948 220.753 417.657 221.237C421.44 221.447 424.06 224.036 427.558 221.237C431.409 218.156 440.036 219.917 444.794 219.917L445.01 219.917C449.295 219.917 452.126 219.918 455.942 218.01C456.884 217.539 460.272 215.956 461.222 215.956C464.595 215.956 467.929 223.249 470.17 225.491C471.873 227.194 475.744 229.997 475.744 232.458C475.744 237.675 464.901 241.975 461.222 244.34C455.662 247.914 438.097 246.422 436.213 254.901C434.979 260.451 437.18 267.792 440.1 272.43C443.96 278.562 444.746 277.612 451.394 275.657C462.584 272.366 474.16 274.312 485.645 270.816C488.004 270.098 489.727 267.879 490.999 267.516C493.972 266.666 498.049 267.512 501.121 267.443C507.441 267.299 514.469 264.077 520.63 264.802C523.935 265.191 524.441 279.792 526.644 282.624C530.496 287.578 531.98 288.565 538.452 288.565C542.282 288.565 545.477 285.925 549.673 285.925C554.309 285.925 557.048 289.635 561.555 289.885C567.279 290.203 581.096 275.039 584.731 270.743C589.415 265.208 601.162 246.786 609.081 246.32C615.411 245.948 616.218 269.02 620.962 274.043C624.797 278.104 626.172 288.639 630.79 289.959C634.186 290.929 641.292 294.58 644.432 296.486L644.786 296.701C649.752 299.714 653.247 301.835 656.313 307.047C659.607 312.647 662.194 316.09 668.415 319.589C673.864 322.654 680.369 324.631 680.369 331.47C680.369 340.301 678.278 345.665 674.062 353.253L667.828 364.475C665.35 368.936 659.646 369.592 655.946 372.469C648.774 378.047 646.553 386.375 638.124 389.924C631.606 392.669 621.948 391.538 615.021 391.538C611.681 391.538 605.521 390.654 602.773 393.151C600.771 394.972 601.926 398.19 600.426 400.119C594.678 407.51 597.399 419.151 595.806 427.916C595.007 432.308 592.663 437.719 590.892 441.704C589.313 445.256 590.777 449.801 588.985 453.586C586.97 457.84 585.318 462.635 585.318 467.447C585.318 471.385 568.52 474.491 565.002 478.009C560.175 482.835 558.483 494.311 555.981 500.818C553.963 506.065 548.436 509.734 546.96 514.9C546.366 516.978 542.652 522.081 541.019 523.481C537.186 526.766 530.476 528.662 525.91 530.155C520.966 531.771 516.218 533.942 511.462 536.022C508.978 537.109 509.262 538.839 507.135 539.69C496.283 544.03 488.56 557.233 476.258 559.125C458.883 561.798 444.629 570.396 431.885 582.668C427.25 587.131 422.047 590.26 416.263 592.863C410.87 595.29 392.475 596.387 389.934 602.104C385.413 612.276 373.356 613.325 363.53 613.325C351.06 613.325 340.05 614.659 331.846 625.207C327.7 630.538 321.453 642.126 314.978 644.716C310.016 646.701 306.073 648.571 304.416 653.957C302.569 659.959 309.838 671.254 315.271 672.806C319.923 674.135 298.627 690.941 295.615 692.535C284.64 698.345 270.223 700.456 257.917 700.456C250.619 700.456 243.754 702.748 236.795 703.096C228.765 703.498 220.82 701.776 212.738 701.776C208.577 701.776 204.755 700.456 201.15 700.456C198.983 700.456 192.709 699.785 190.589 698.843C180.337 694.286 186.35 677.102 189.855 670.092C194.806 660.192 190.625 653.223 183.695 646.036C179.242 641.418 172.693 638.042 169.466 632.394C165.306 625.114 148.434 620.808 141.083 616.552C136.036 613.631 133.822 612.04 133.822 606.431C133.822 600.672 134.979 595.111 135.142 589.562C135.291 584.511 135.142 579.434 135.142 574.38C135.142 568.671 130.328 566.586 127.954 561.839C126.147 558.224 123.419 554.836 122.234 550.984C120.434 545.136 123.726 538.051 119.3 532.795C117.603 530.78 117.155 528.211 115.34 526.195C112.419 522.95 109.42 521.116 106.172 518.274C102.081 514.695 96.5287 513.427 94.2169 508.226C91.9012 503.015 86.6208 502.316 87.6894 495.904C88.5275 490.876 92.8967 487.536 92.8967 481.969C92.8967 477.337 93.5274 475.157 90.2564 472.068C87.1185 469.104 84.485 465.425 82.6288 461.507C78.4872 452.763 76.468 443.904 71.7741 435.69C66.837 427.05 59.8926 420.092 59.8926 409.727C59.8926 400.214 64.3499 389.948 57.9124 382.223C53.2384 376.615 52.4756 370.99 50.3581 364.108C48.8879 359.33 45.3708 354.351 45.3708 349.293C45.3708 342.561 48.0233 336.069 51.3116 330.15C55.4448 322.711 55.9322 315.675 55.9322 307.047C56.5 302 63 292 64.5 287.908M1039.76 667.745C1039.76 654.729 1035.49 643.123 1035.49 629.827C1035.49 621.697 1035.92 617.934 1029.48 612.665C1025.12 609.101 1018.73 609.631 1013.78 607.385C1009.22 605.311 1012.01 606.502 1008.43 609.365C1004.5 612.508 1006.45 623.298 1006.45 627.847C1006.45 633.938 1007.54 642.324 1003.52 647.356C1000.76 650.797 998.604 656.976 996.182 660.851C994.615 663.357 990.497 665.509 988.261 667.745C986.085 669.921 986.647 672.401 986.647 675.373C986.647 681.445 981.614 688.575 975.426 688.575C971.753 688.575 965.602 689.053 962.297 690.555C959.475 691.838 958.099 694.964 955.697 691.875C952.178 687.352 952.575 674.596 946.309 672.806C941.237 671.357 936.251 675.784 932.667 678.6C929.231 681.3 930.559 683.507 929.22 687.255C927.141 693.076 926.226 700.475 921.299 704.417C914.395 709.94 919.605 714.463 916.018 720.919C914.414 723.806 911.716 725.899 910.078 728.766C908.538 731.46 908.914 734.108 906.851 736.761C904.886 739.286 907.005 743.215 905.457 746.002C903.565 749.408 900.226 752.406 897.463 755.17C895.037 757.595 884.171 763.451 882.061 759.863C878.463 753.746 872.69 746.848 864.899 751.943C853.665 759.288 845.183 769.885 831.161 770.425C822.173 770.771 823.24 779.047 816.273 782.966C812.219 785.246 806.849 792.014 802.558 792.794C799.627 793.327 796.222 792.868 793.243 792.868C784.954 792.868 783.517 791.226 777.328 797.415C774.348 800.395 763.54 803.635 763.54 797.488C763.54 791.578 762.219 785.83 762.219 779.666C762.219 772.425 756.939 767.848 756.939 761.184C756.939 754.519 763.667 749.51 754.592 746.368C745.055 743.067 745.056 736.934 745.057 728.177V727.886C745.057 714.406 758.259 706.906 758.259 692.535C758.259 684.647 749.81 683.294 755.912 675.666C759.323 671.403 756.972 660.542 754.005 656.891C749.333 651.14 742.177 647.536 736.476 643.102C729.715 637.844 718.029 651.61 712.64 651.61C704.894 651.61 697.839 651.802 690.344 649.703C685.512 648.35 680.162 646.998 675.089 647.723C672.696 648.065 668.109 651.626 666.581 653.59C664.166 656.695 660.142 657.176 656.606 658.944C649.531 662.482 646.619 663.896 638.124 663.492C628.253 663.022 617.066 657.538 607.76 662.465C604.023 664.443 603.445 668.382 599.839 670.386C595.429 672.836 589.467 675.771 585.904 679.333C581.61 683.628 580.778 692.565 577.69 697.816C576.443 699.936 573.02 700.398 570.722 701.116C566.668 702.383 562.313 704.949 558.768 705.737C551.76 707.294 545.026 708.096 538.452 711.017C535.06 712.525 537.037 716.724 536.398 719.599C534.977 725.993 531.276 731.882 527.157 736.687C526.207 737.795 522.625 740.576 521.216 741.381C518.572 742.892 518.226 746.208 516.009 747.982C513.151 750.268 515.832 763.507 515.276 767.124C514.166 774.335 511.021 778.913 506.841 784.286C497.164 796.728 509.14 812.278 497.527 823.891C494.579 826.839 490.45 830.638 486.599 832.179C483.412 833.454 482.322 837.596 478.091 837.753C471.171 838.009 464.188 837.753 457.262 837.753C447.28 837.753 438.703 839.7 429.245 842.74C424.421 844.291 419.59 846.095 415.016 848.021C411.776 849.385 407.933 848.995 404.748 850.955C398.112 855.039 386.991 853.9 379.372 854.989C371.899 856.056 364.565 856.684 357.003 857.629C346.362 858.959 346.363 861.427 346.368 870.88L346.368 891.22C346.368 894.5 346.561 897.846 346.368 901.121C346.218 903.674 339.498 908.647 337.567 910.656C331.915 916.533 329.933 926.387 322.605 930.458C319.315 932.286 318.631 934.543 314.684 935.739C311.323 936.757 302.447 939.597 300.162 942.339C296.479 946.759 289.672 944.839 285.64 948.647C281.97 952.113 279.319 956.671 279.04 961.849C278.674 968.604 276.399 974.712 276.399 981.651V991.185C276.399 993.722 277.481 999.014 275.079 1000.43C273.284 1001.48 269.728 1006.25 268.772 1008.05C263.509 1017.99 268.5 1028 277.256 1032.5M754.608 623.576C753.85 623.576 753.257 623.919 752.533 624.131C750.592 624.698 748.615 625.197 746.698 625.836C746.219 625.996 744.993 626.305 744.993 626.905C744.993 627.878 744.798 629.112 745.095 630.048C745.355 630.865 745.72 631.884 746.277 632.534C746.459 632.747 746.978 632.636 747.222 632.636C748.041 632.636 748.735 632.896 749.523 633.089C751.624 633.602 753.777 634.272 755.686 635.318C756.668 635.855 757.381 636.009 757.381 637.156C757.381 638.079 757.416 638.984 757.052 639.848C756.961 640.065 756.925 640.779 757.093 640.957C757.668 641.565 758.674 641.687 759.456 641.697C761.322 641.721 763.185 642.027 765.024 642.344C765.815 642.48 765.767 642.649 766.174 642.056C766.871 641.043 767.533 639.965 768.475 639.149C769.075 638.63 771.75 637.596 770.766 636.612C769.634 635.48 767.736 635.275 767.736 633.284C767.736 632.859 767.564 631.957 767.849 631.609C768.509 630.802 769.27 630.21 770.085 629.577L770.139 629.534C771.175 628.729 771.038 627.758 770.139 626.905C769.207 626.019 767.806 625.562 766.688 624.973C766.012 624.617 765.098 623.946 764.315 623.946C762.943 623.946 761.434 623.748 760.083 623.956C759.299 624.077 758.955 624.501 758.121 624.501C757.397 624.501 756.751 624.404 756.179 623.946C755.817 623.657 755.081 623.207 754.608 623.207M782.837 491.067C782.933 491.937 784.83 493.276 784.83 492.063C784.83 491.259 783.7 490.787 783.121 490.498M775.089 426.767C773.943 428.463 772.962 429.915 772.962 432.145C772.962 433.61 775.105 434.538 777.05 435.38C778.138 435.85 779.164 436.294 779.719 436.791C783.694 440.347 788.333 433.712 789.057 430.456C789.964 426.374 798.398 424.148 803.02 422.928C803.656 422.76 804.22 422.611 804.683 422.479C806.273 422.024 806.529 419.194 805.433 417.786C803.869 415.775 802.21 415.172 800.106 414.406C799.595 414.221 799.057 414.025 798.489 413.798C797.99 413.598 797.753 413.292 797.533 413.008C797.243 412.633 796.982 412.296 796.189 412.296C796.088 412.296 795.973 412.302 795.846 412.31C795.752 412.316 795.652 412.324 795.548 412.332C794.805 412.39 793.865 412.464 793.421 412.108C792.508 411.378 791.247 411.192 789.972 411.004C788.889 410.844 787.795 410.683 786.898 410.184C785.708 409.523 784.912 408.162 784.116 406.801C783.006 404.903 781.897 403.005 779.719 403.005C777.386 403.297 766.798 412.263 768.081 414.83C768.894 416.454 770.697 417.526 772.437 418.56C775.442 420.346 778.257 422.02 775.449 426.233C775.382 426.332 775.316 426.431 775.25 426.529M775.089 426.767C775.143 426.688 775.196 426.609 775.25 426.529M775.089 426.767L775.25 426.529M1052 549.5C1052 852.428 816.726 1098 526.5 1098C236.274 1098 1 852.428 1 549.5C1 246.572 236.274 1 526.5 1C816.726 1 1052 246.572 1052 549.5ZM816.038 387.801C816.038 388.517 814.699 389.481 813.17 390.581C810.535 392.476 807.34 394.775 809.469 396.905C811.007 398.443 820.655 402.236 822.608 400.283C823.427 399.464 825.654 391.035 825.142 390.523C824.212 389.594 821.999 389.551 820.4 389.52C820.032 389.513 819.697 389.507 819.417 389.491C818.767 389.452 818.355 389.081 817.928 388.696C817.442 388.257 816.937 387.801 816.038 387.801ZM772.827 450.078C772.827 451.224 772.257 452.127 771.698 453.013C771.012 454.098 770.342 455.159 770.757 456.61C771.084 457.754 772.948 457.902 774.662 458.038C775.948 458.14 777.148 458.236 777.551 458.739C777.912 459.19 781.6 453.835 780.059 452.295C779.769 452.005 779.255 451.827 778.703 451.637C778.06 451.415 777.365 451.175 776.91 450.72C776.532 450.342 775.528 450.352 774.608 450.362C773.757 450.37 772.977 450.378 772.827 450.078ZM779.42 469.714C780.436 470.222 780.784 476.99 779.135 476.99C778.149 476.99 777.142 474.458 777.142 473.7C777.142 472.998 777.667 472.448 778.212 471.875C778.804 471.255 779.42 470.608 779.42 469.714Z" stroke="white" stroke-linecap="round"/>
</svg>





