<!-- sample rectangle -->
        <svg class="sun prevent-select" onclick="toggleLight()" width="34" height="34" viewBox="0 0 34 34" fill="none" xmlns="http://www.w3.org/2000/svg">
            <path d="M17 21.5C18.25 21.5 19.3125 21.0625 20.1875 20.1875C21.0625 19.3125 21.5 18.25 21.5 17C21.5 15.75 21.0625 14.6875 20.1875 13.8125C19.3125 12.9375 18.25 12.5 17 12.5C15.75 12.5 14.6875 12.9375 13.8125 13.8125C12.9375 14.6875 12.5 15.75 12.5 17C12.5 18.25 12.9375 19.3125 13.8125 20.1875C14.6875 21.0625 15.75 21.5 17 21.5ZM17 24.5C14.925 24.5 13.1563 23.7688 11.6938 22.3063C10.2313 20.8438 9.5 19.075 9.5 17C9.5 14.925 10.2313 13.1563 11.6938 11.6938C13.1563 10.2313 14.925 9.5 17 9.5C19.075 9.5 20.8438 10.2313 22.3063 11.6938C23.7688 13.1563 24.5 14.925 24.5 17C24.5 19.075 23.7688 20.8438 22.3063 22.3063C20.8438 23.7688 19.075 24.5 17 24.5ZM6.5 18.5H0.5V15.5H6.5V18.5ZM33.5 18.5H27.5V15.5H33.5V18.5ZM15.5 6.5V0.5H18.5V6.5H15.5ZM15.5 33.5V27.5H18.5V33.5H15.5ZM8.6 10.625L4.8125 6.9875L6.95 4.775L10.55 8.525L8.6 10.625ZM27.05 29.225L23.4125 25.4375L25.4 23.375L29.1875 27.0125L27.05 29.225ZM23.375 8.6L27.0125 4.8125L29.225 6.95L25.475 10.55L23.375 8.6ZM4.775 27.05L8.5625 23.4125L10.625 25.4L6.9875 29.1875L4.775 27.05Z" fill="black"/>
        </svg>